<?xml version="1.0" encoding="utf-8"?>
<!-- Generator: Adobe Illustrator 21.0.0, SVG Export Plug-In . SVG Version: 6.00 Build 0)  -->
<svg version="1.1" id="Layer_1" xmlns="http://www.w3.org/2000/svg" xmlns:xlink="http://www.w3.org/1999/xlink" x="0px" y="0px"
	 viewBox="0 0 330 284" style="enable-background:new 0 0 330 284;" xml:space="preserve">
<style type="text/css">
	.st0{opacity:0.69;fill:#9995A7;}
	.st1{fill:#65324E;}
	.st2{fill:#07113D;}
	.st3{fill:#2C3765;}
	.st4{fill:#25253A;}
	.st5{fill:#F4A891;}
	.st6{fill:#FFC7B0;}
	.st7{fill:#FFFFFF;}
	.st8{fill:#E48867;}
	.st9{fill:#181827;}
	.st10{fill:#EAECEE;}
	.st11{fill:#D93838;}
	.st12{fill:#9995A7;}
	.st13{opacity:0.25;}
	.st14{fill:#787684;}
	.st15{fill:#5D5872;}
	.st16{fill:#ECEBEF;}
	.st17{fill:#FBFCFC;}
	.st18{fill:#061D48;}
	.st19{fill:#4A8ECC;}
	.st20{fill:#CD8F7C;}
	.st21{fill:#723343;}
	.st22{fill:#591239;}
	.st23{fill:#FFC4BC;}
	.st24{fill:#89362E;}
	.st25{fill:none;stroke:#07113D;stroke-width:1.5593;stroke-linecap:round;stroke-miterlimit:10;}
	.st26{fill:#A54437;}
	.st27{clip-path:url(#SVGID_4_);}
	.st28{clip-path:url(#SVGID_4_);fill:#181827;}
	.st29{fill:#F4B84D;}
	.st30{opacity:0.95;}
	.st31{fill:#DB734C;}
	.st32{opacity:0.71;fill:#DB734C;}
	.st33{fill:none;stroke:#181827;stroke-width:34.3055;stroke-miterlimit:10;}
	.st34{fill:#B95241;}
	.st35{opacity:0.49;}
	.st36{fill:none;stroke:#204170;stroke-width:2.5;stroke-miterlimit:10;}
	.st37{fill:none;stroke:#E48867;stroke-width:1.5593;stroke-miterlimit:10;}
	.st38{fill:none;stroke:#204170;stroke-width:1.4626;stroke-miterlimit:10;}
	.st39{fill:#5371B7;}
	.st40{fill:#6D322E;}
	.st41{fill:#B7B9BD;}
	.st42{fill:#578DCE;}
	.st43{fill:#0C2D63;}
	.st44{fill:none;stroke:#07113D;stroke-width:1.5821;stroke-linecap:round;stroke-miterlimit:10;}
	.st45{fill:#4D6199;}
	.st46{fill:#2C2C44;}
	.st47{opacity:0.39;fill:#181827;}
	.st48{fill:none;stroke:#2C2C44;stroke-width:37.4242;stroke-miterlimit:10;}
</style>
<g>
	<g>
		<g>
			<defs>
				<path id="SVGID_1_" d="M118.4,269.6c-1.2-31.5-4.2-61.8-7.2-67.5c-2.9-3.4-18.8-10.9-34.2-16.1l6.5-19.4
					c10.8,3.7,36.9,13.3,44.3,23.6c3.1,4.4,6.6,13.2,8.4,45.3c1,16.8,2.9,33.3,2.9,33.3L118.4,269.6z"/>
			</defs>
			<clipPath id="SVGID_2_">
				<use xlink:href="#SVGID_1_"  style="overflow:visible;"/>
			</clipPath>
		</g>
	</g>
	<g>
		<path class="st0" d="M323.3,283.9H4.7c-2.6,0-4.7-2.1-4.7-4.7l0,0c0-2.6,2.1-4.7,4.7-4.7h318.6c2.6,0,4.7,2.1,4.7,4.7l0,0
			C327.9,281.8,325.9,283.9,323.3,283.9z"/>
		<g>
			<path class="st1" d="M201.6,199.8h-41.1c-10.3,0-18.7-8.4-18.7-18.7v-73.2c0-10.3,8.4-18.7,18.7-18.7h41.1
				c10.3,0,18.7,8.4,18.7,18.7v73.2C220.3,191.4,211.9,199.8,201.6,199.8z"/>
			<g>
				<path class="st2" d="M162.4,209.6h38.8c2.1,0,3.9-1.7,3.9-3.9l0,0c0-2.1-1.7-3.9-3.9-3.9h-38.8c-2.1,0-3.9,1.7-3.9,3.9l0,0
					C158.6,207.8,160.3,209.6,162.4,209.6z"/>
				<path class="st1" d="M146.1,204.9h47.1c4.6,0,8.4-3.8,8.4-8.4V194c0-4.6-3.8-8.4-8.4-8.4h-47.1c-4.6,0-8.4,3.8-8.4,8.4v2.6
					C137.7,201.2,141.5,204.9,146.1,204.9z"/>
				<path class="st1" d="M181.3,205.2h38.2c4.6,0,8.4-3.8,8.4-8.4v-2.6c0-4.6-3.8-8.4-8.4-8.4h-38.2c-4.6,0-8.4,3.8-8.4,8.4v2.6
					C172.9,201.4,176.7,205.2,181.3,205.2z"/>
				<g>
					<g>
						<path class="st2" d="M145.8,273.7h5.4c0-6.5,5.3-11.8,11.8-11.8h39.5c6.5,0,11.8,5.3,11.8,11.8h5.4c0-9.5-7.7-17.2-17.2-17.2
							H163C153.5,256.5,145.8,264.2,145.8,273.7z"/>
					</g>
				</g>
				<g>
					<circle class="st2" cx="217.2" cy="278.9" r="4.5"/>
					<path class="st2" d="M210.7,278.5H223v-2c0-3-2.4-5.3-5.3-5.3H216c-3,0-5.3,2.4-5.3,5.3V278.5z"/>
					<circle class="st2" cx="148.2" cy="278.9" r="4.5"/>
					<path class="st2" d="M141.7,278.5h12.3v-2c0-3-2.4-5.3-5.3-5.3h-1.7c-3,0-5.3,2.4-5.3,5.3V278.5z"/>
				</g>
				
					<rect x="178.7" y="258.2" transform="matrix(-1 -1.224647e-16 1.224647e-16 -1 364.6758 532.6378)" class="st2" width="7.2" height="16.3"/>
				<g>
					<circle class="st2" cx="182.2" cy="278.9" r="4.5"/>
					<path class="st3" d="M175.7,278.5H188v-2c0-3-2.4-5.3-5.3-5.3H181c-3,0-5.3,2.4-5.3,5.3V278.5z"/>
				</g>
			</g>
			<g>
				<path class="st4" d="M126.4,122.1c0.6-1.4,26-42.6,35.3-47.3c9.4-4.7,27.4-5.9,32.7-3.2c20.6,10.6,37.4,45,40.5,52.6
					c3.6,8.8,0,20.3-4.2,20.3c-4.2,0-97.7,0-97.7,0S118.6,139.8,126.4,122.1z"/>
				<g>
					<path class="st2" d="M190.7,58.5h-15.6c-9.5,0-17.3-7.7-17.3-17.3V23c0-12,9.7-21.7,21.7-21.7h6.7c12,0,21.7,9.7,21.7,21.7
						v18.2C208,50.8,200.3,58.5,190.7,58.5z"/>
					<path class="st5" d="M165.4,33l-0.3,5.6l-0.2,3.8l-1.7-0.1c-0.1,0-0.2,0-0.4,0c-2.8-0.3-4.9-2.5-4.8-5c0.1-1.3,0.7-2.3,1.8-3.2
						c0.9-0.7,2.1-1.1,3.4-1.1h0c0.2,0,0.3,0,0.4,0L165.4,33z"/>
					<path class="st5" d="M202,33.1l0.3,5.6l0.2,3.8l1.7-0.1c0.1,0,0.2,0,0.4,0c2.8-0.3,4.9-2.5,4.8-5c-0.1-1.3-0.7-2.3-1.8-3.2
						c-0.9-0.7-2.1-1.1-3.4-1.1h0c-0.2,0-0.3,0-0.4,0L202,33.1z"/>
					<path class="st5" d="M183.8,77.7h-2.2c-3.9,0-7.2-3.2-7.2-7.2V54.2c0-3.9,3.2-7.2,7.2-7.2h2.2c3.9,0,7.2,3.2,7.2,7.2v16.3
						C190.9,74.5,187.7,77.7,183.8,77.7z"/>
					<path class="st6" d="M205.2,32.2l-0.5,10.2l-0.1,1.5c0,1-0.2,2-0.4,3c-1.6,8.1-7.8,14.5-15.7,16.5c-0.9,0.2-1.8,0.4-2.7,0.5
						c-0.3,0-0.6,0.1-0.8,0.1c-0.6,0.1-1.2,0.1-1.8,0.1c-0.4,0-0.8,0-1.3,0c-1-0.1-1.9-0.2-2.8-0.3c-0.4-0.1-0.8-0.2-1.1-0.2
						c-1.4-0.3-2.8-0.8-4.1-1.4c0,0,0,0,0,0c-6.2-2.9-10.7-8.7-12-15.5c0,0,0,0,0-0.1c-0.1-0.7-0.2-1.5-0.3-2.2c0-0.2,0-0.5,0-0.7
						c0-0.2,0-0.5,0-0.7c0-0.3,0-0.6,0-0.9v-0.2l0-0.7l0.1-1.8l0.2-3.1v0l0.2-3.1l0-0.1v0l0.1-1.2l0-0.9l0-0.8l0-0.2
						c0.1-1.4,0.4-2.8,0.8-4.2c0.3-0.9,0.6-1.8,1-2.7c0.1-0.1,0.1-0.3,0.2-0.4c0.3-0.7,0.7-1.4,1.1-2.1c0,0,0,0,0,0
						c1.5-2.6,3.6-4.8,6.1-6.5c0.5-0.3,1-0.7,1.5-1c3.6-2.1,7.8-3.2,12.2-3c5.9,0.3,11.2,3,14.9,7c1.1,1.2,2,2.5,2.7,3.9
						c0.6,1.1,1.1,2.3,1.5,3.6c0.3,0.8,0.5,1.6,0.6,2.4c0,0,0,0,0,0c0,0.3,0.1,0.6,0.1,0.8c0.1,0.5,0.1,1,0.1,1.5
						C205.3,30.2,205.3,31.2,205.2,32.2z"/>
					<g>
						<path class="st2" d="M190,37.3L190,37.3c-0.5,0-1-0.4-1-1v-1.6c0-0.5,0.4-1,1-1l0,0c0.5,0,1,0.4,1,1v1.6
							C190.9,36.8,190.5,37.3,190,37.3z"/>
						<path class="st2" d="M173.3,37.2L173.3,37.2c-0.5,0-1-0.4-1-1v-1.6c0-0.5,0.4-1,1-1l0,0c0.5,0,1,0.4,1,1v1.6
							C174.2,36.8,173.8,37.2,173.3,37.2z"/>
						<path class="st2" d="M194.8,31h-6.8c-0.7,0-1.2-0.5-1.2-1.2l0,0c0-0.7,0.5-1.2,1.2-1.2h6.8c0.7,0,1.2,0.5,1.2,1.2l0,0
							C196,30.5,195.5,31,194.8,31z"/>
						<path class="st2" d="M178.4,31h-6.8c-0.7,0-1.2-0.5-1.2-1.2l0,0c0-0.7,0.5-1.2,1.2-1.2h6.8c0.7,0,1.2,0.5,1.2,1.2l0,0
							C179.6,30.5,179,31,178.4,31z"/>
						<path class="st7" d="M189.7,48.5c-2,2.9-4.6,4.5-7.3,4c-2.2-0.3-4.1-2-5.2-4.5L189.7,48.5z"/>
						<path class="st8" d="M180.8,41.9h4.6C185.4,41.9,183.2,44.9,180.8,41.9z"/>
					</g>
					<path class="st5" d="M205.2,32.2l-0.5,10.2l-0.1,1.5c0,1-0.2,2-0.4,3c-1.6,8.1-7.8,14.5-15.7,16.5c-0.9,0.2-1.8,0.4-2.7,0.5
						c-0.3,0-0.6,0.1-0.8,0.1c-0.6,0.1-1.2,0.1-1.8,0.1c-0.4,0-0.8,0-1.3,0c-1.1,0-2.2-0.2-3.2-0.4c-0.2,0-0.4-0.1-0.6-0.1
						c-1.4-0.3-2.8-0.8-4.1-1.4c0,0,0,0,0,0c-6.2-3-10.8-8.8-12-15.6c0,0,0,0,0-0.1c-0.1-0.7-0.2-1.5-0.3-2.2c0-0.2,0-0.5,0-0.7
						c0-0.2,0-0.5,0-0.7c0-0.3,0-0.6,0-0.9v-0.2l0-0.7l0.1-1.8l0.2-3.1c1,11.4,5,25.8,19.2,26.4c19.7,0.8,23.7-20.8,24-33.2
						C205.3,30.2,205.3,31.2,205.2,32.2z"/>
					<path class="st2" d="M177.3,20.2l11.6,3.6c1.8,0.6,3.5-1.2,2.8-3l-0.1-0.2l1.4,0.7c4.1,2.2,7.4,5.6,9.5,9.7l2.6,5.3
						c0,0,6.3-26.8-23.1-27.4c-23.4-0.5-20.5,23-20.5,23S166.7,18.6,177.3,20.2z"/>
				</g>
				<path class="st9" d="M207.9,177.4c0,2.4-1.3,4.5-3.5,6.2c-2.8,2.2-7.1,3.6-11.9,3.6h-25.9c-0.8,0-1.5,0-2.3-0.1
					c-1.9-0.2-3.7-0.6-5.3-1.1c-0.3-0.1-0.6-0.2-0.8-0.3c-4.2-1.7-7-4.8-7-8.2l0.5-5.2l55.7-0.3L207.9,177.4z"/>
				<g>
					<path class="st1" d="M169.1,281.2h-14.7c-2.9,0-5.3-2.4-5.3-5.3l0,0c0-2.9,2.4-5.3,5.3-5.3h14.7c2.9,0,5.3,2.4,5.3,5.3l0,0
						C174.4,278.8,172.1,281.2,169.1,281.2z"/>
					<path class="st9" d="M171.3,270.9h-19.6v-89.4c0-4.7,3.8-8.5,8.5-8.5h2.6c4.7,0,8.5,3.8,8.5,8.5V270.9z"/>
				</g>
				<g>
					<path class="st1" d="M205.8,281.2h-14.7c-2.9,0-5.3-2.4-5.3-5.3l0,0c0-2.9,2.4-5.3,5.3-5.3h14.7c2.9,0,5.3,2.4,5.3,5.3l0,0
						C211.1,278.8,208.8,281.2,205.8,281.2z"/>
					<path class="st9" d="M208,270.9h-19.6v-88.1c0-5.4,4.4-9.8,9.8-9.8l0,0c5.4,0,9.8,4.4,9.8,9.8V270.9z"/>
				</g>
				<rect x="151.4" y="159.7" class="st9" width="56.6" height="24.2"/>
				<g>
					<path class="st4" d="M209.3,95.8l-1.7,59.4l-55.8,0.5l-1.5-59.9c0-12.4,9-22.8,20.9-24.9c1.4-0.2,2.9-0.4,4.4-0.4h8.5
						C198,70.6,209.3,81.9,209.3,95.8z"/>
					<g>
						<polygon class="st10" points="193.6,154.4 171.3,154.4 171.4,69.1 194,69.1 						"/>
					</g>
					<path class="st11" d="M177.1,70c0.4,0.6,6.1,8.8,6.1,8.8l6.9-8.4l-3.5-0.9l-6.3,0.8L177.1,70z"/>
					<polygon class="st7" points="194.2,76.8 183.6,70.6 171.3,76.8 171.3,69.1 194.2,69.1 					"/>
					<rect x="180.9" y="73.6" class="st11" width="5.2" height="29.1"/>
				</g>
				<path class="st2" d="M164.7,18.9L164,36.5c0,0.8-0.8,1.5-1.6,1.3l0,0c-0.7-0.1-1.1-0.7-1.1-1.3L161,21.6L164.7,18.9z"/>
				<path class="st2" d="M202.1,20.5l0.7,17.7c0,0.8,0.8,1.5,1.6,1.3l0,0c0.7-0.1,1.1-0.7,1.1-1.3l0.3-14.9L202.1,20.5z"/>
			</g>
			<g>
				<path class="st12" d="M215,103.9V145h-68.2v-41.2c0-4,3.3-7.3,7.3-7.3h53.7c2.1,0,4.1,0.9,5.4,2.4
					C214.2,100.3,215,102,215,103.9z"/>
				<circle class="st7" cx="180.8" cy="120.8" r="5"/>
			</g>
			<g class="st13">
				<path class="st14" d="M215,103.9v10.2c-5.6-0.6-25.4-2-26.3,0.9c-0.5,1.7-1.5,4.1-2.8,6c-1.4,2-3.1,3.4-5.2,3.1
					c-0.6-0.1-1.8,0-3.3,0.3c-1.2,0.2-2.6,0.6-4.1,1c0.2,4.2,1.2,19.1,1.2,19.1l-21.7,0.6l-6,0.1v-33.3
					C150.6,111.3,215,102,215,103.9z"/>
			</g>
			<g>
				<g>
					<path class="st7" d="M207,279.2h-54.7l0,0c0-4.7,3.8-8.5,8.5-8.5h37.6C203.2,270.7,207,274.5,207,279.2L207,279.2z"/>
					<path class="st12" d="M186,157.9v112.9c0,1.4-1.1,2.6-2.6,2.6h-5.8c-1.4,0-2.6-1.1-2.6-2.6V157.9H186z"/>
					<rect x="146.1" y="156.4" class="st15" width="69" height="7"/>
					<rect x="119.7" y="144.4" class="st7" width="121.8" height="14"/>
					<path class="st16" d="M207,283.9h-54.7l0,0c0-4.7,3.8-8.5,8.5-8.5h37.6C203.2,275.4,207,279.2,207,283.9L207,283.9z"/>
					<rect x="119.7" y="151.7" class="st16" width="121.8" height="6.7"/>
					<polygon class="st15" points="175.2,160.6 186,160.3 186,168.9 175.2,173.1 					"/>
					<path class="st12" d="M175.6,146.9L175.6,146.9c0,1.1-0.9,2-2,2h-53.9v-4h53.9C174.7,144.9,175.6,145.8,175.6,146.9z"/>
					<path class="st12" d="M241.5,145.9v3H222c-0.8,0-1.5-0.7-1.5-1.5l0,0c0-0.8,0.7-1.5,1.5-1.5H241.5z"/>
				</g>
				<g>
					<path class="st1" d="M38.5,199.8l-19.9-88.6c-0.5-3.7,10.7-2.3,14.4-2.5c2.4-0.1,7.1,0.6,7.7,5.8L52,198
						c0.5,3.7-2.1,7.2-5.8,7.7l0,0C42.5,206.2,39,203.5,38.5,199.8z"/>
					<path class="st11" d="M26.5,199.8l-11.3-83.4c-0.5-3.7,2.1-7.2,5.8-7.7h0c3.7-0.5,7.2,2.1,7.7,5.8L40,198
						c0.5,3.7-2.1,7.2-5.8,7.7l0,0C30.5,206.2,27,203.5,26.5,199.8z"/>
					<g>
						<g>
							<rect x="65.1" y="211.2" class="st12" width="7.9" height="46.8"/>
							<path class="st4" d="M73,214v10.6l-7.9-3.1v-7.2C67.1,214.2,70.9,214.1,73,214z"/>
						</g>
						<path class="st4" d="M87.4,215H52c-1.9,0-3.5-1.6-3.5-3.5l0,0c0-1.9,1.6-3.5,3.5-3.5h35.4c1.9,0,3.5,1.6,3.5,3.5l0,0
							C91,213.4,89.4,215,87.4,215z"/>
						<path class="st1" d="M106,210.8H62.8c-4.2,0-7.7-3.5-7.7-7.7v-2.4c0-4.2,3.5-7.7,7.7-7.7H106c4.2,0,7.7,3.5,7.7,7.7v2.4
							C113.6,207.3,110.2,210.8,106,210.8z"/>
						<path class="st1" d="M93.2,210.8H50.1c-4.2,0-7.7-3.5-7.7-7.7v-2.4c0-4.2,3.5-7.7,7.7-7.7h43.1c4.2,0,7.7,3.5,7.7,7.7v2.4
							C100.9,207.3,97.4,210.8,93.2,210.8z"/>
						<path class="st11" d="M69,211H36.4c-4.9,0-8.9-4-8.9-8.9l0,0c0-4.9,4-8.9,8.9-8.9H69c4.9,0,8.9,4,8.9,8.9l0,0
							C77.8,207,73.8,211,69,211z"/>
						<g>
							<g>
								<path class="st2" d="M102.7,273.6h-5c0-5.9-4.8-10.8-10.8-10.8H50.8c-5.9,0-10.8,4.8-10.8,10.8h-5c0-8.7,7-15.7,15.7-15.7
									h36.2C95.6,257.9,102.7,265,102.7,273.6z"/>
							</g>
							<rect x="63.2" y="250.5" class="st2" width="11.6" height="7.6"/>
						</g>
						<g>
							<circle class="st2" cx="37.4" cy="278.4" r="4.1"/>
							<path class="st3" d="M43.3,278.1H32v-1.8c0-2.7,2.2-4.9,4.9-4.9h1.5c2.7,0,4.9,2.2,4.9,4.9V278.1z"/>
							<circle class="st2" cx="100.4" cy="278.4" r="4.1"/>
							<path class="st3" d="M106.4,278.1H95.1v-1.8c0-2.7,2.2-4.9,4.9-4.9h1.5c2.7,0,4.9,2.2,4.9,4.9V278.1z"/>
						</g>
						<rect x="65.9" y="259.4" class="st2" width="6.6" height="14.9"/>
						<g>
							<circle class="st2" cx="69.4" cy="278.4" r="4.1"/>
							<path class="st3" d="M75.3,278.1H64v-1.8c0-2.7,2.2-4.9,4.9-4.9h1.5c2.7,0,4.9,2.2,4.9,4.9V278.1z"/>
						</g>
					</g>
				</g>
				<g>
					<path class="st1" d="M306.3,199.8l19.9-88.6c0.5-3.7-10.7-2.3-14.4-2.5c-2.4-0.1-7.1,0.6-7.7,5.8L292.8,198
						c-0.5,3.7,2.1,7.2,5.8,7.7h0C302.4,206.2,305.8,203.5,306.3,199.8z"/>
					<path class="st11" d="M318.4,199.8l11.3-83.4c0.5-3.7-2.1-7.2-5.8-7.7l0,0c-3.7-0.5-7.2,2.1-7.7,5.8L304.8,198
						c-0.5,3.7,2.1,7.2,5.8,7.7h0C314.4,206.2,317.9,203.5,318.4,199.8z"/>
					<g>
						<g>
							<rect x="271.9" y="211.2" class="st12" width="7.9" height="46.8"/>
							<path class="st4" d="M271.9,214v10.6l7.9-3.1v-7.2C277.8,214.2,274,214.1,271.9,214z"/>
						</g>
						<path class="st4" d="M257.4,215h35.4c1.9,0,3.5-1.6,3.5-3.5l0,0c0-1.9-1.6-3.5-3.5-3.5h-35.4c-1.9,0-3.5,1.6-3.5,3.5l0,0
							C253.9,213.4,255.5,215,257.4,215z"/>
						<path class="st1" d="M238.9,210.8H282c4.2,0,7.7-3.5,7.7-7.7v-2.4c0-4.2-3.5-7.7-7.7-7.7h-43.1c-4.2,0-7.7,3.5-7.7,7.7v2.4
							C231.2,207.3,234.7,210.8,238.9,210.8z"/>
						<path class="st1" d="M251.7,210.8h43.1c4.2,0,7.7-3.5,7.7-7.7v-2.4c0-4.2-3.5-7.7-7.7-7.7h-43.1c-4.2,0-7.7,3.5-7.7,7.7v2.4
							C244,207.3,247.5,210.8,251.7,210.8z"/>
						<path class="st11" d="M275.9,211h32.6c4.9,0,8.9-4,8.9-8.9l0,0c0-4.9-4-8.9-8.9-8.9h-32.6c-4.9,0-8.9,4-8.9,8.9l0,0
							C267,207,271,211,275.9,211z"/>
						<g>
							<g>
								<path class="st2" d="M242.2,273.6h5c0-5.9,4.8-10.8,10.8-10.8h36.2c5.9,0,10.8,4.8,10.8,10.8h5c0-8.7-7-15.7-15.7-15.7
									h-36.2C249.3,257.9,242.2,265,242.2,273.6z"/>
							</g>
							
								<rect x="270.1" y="250.5" transform="matrix(-1 -1.224647e-16 1.224647e-16 -1 551.7534 508.489)" class="st2" width="11.6" height="7.6"/>
						</g>
						<g>
							<circle class="st2" cx="307.5" cy="278.4" r="4.1"/>
							<path class="st3" d="M301.5,278.1h11.3v-1.8c0-2.7-2.2-4.9-4.9-4.9h-1.5c-2.7,0-4.9,2.2-4.9,4.9V278.1z"/>
							<circle class="st2" cx="244.5" cy="278.4" r="4.1"/>
							<path class="st3" d="M238.5,278.1h11.3v-1.8c0-2.7-2.2-4.9-4.9-4.9h-1.5c-2.7,0-4.9,2.2-4.9,4.9V278.1z"/>
						</g>
						
							<rect x="272.4" y="259.4" transform="matrix(-1 -1.224647e-16 1.224647e-16 -1 551.2863 533.7722)" class="st2" width="6.6" height="14.9"/>
						<g>
							<circle class="st2" cx="275.5" cy="278.4" r="4.1"/>
							<path class="st3" d="M269.6,278.1h11.3v-1.8c0-2.7-2.2-4.9-4.9-4.9h-1.5c-2.7,0-4.9,2.2-4.9,4.9V278.1z"/>
						</g>
					</g>
				</g>
				<g>
					<g>
						<polygon class="st17" points="235.1,128.8 235.1,129.1 235,129.7 235,130.6 234.9,131.6 234.8,133.2 234.8,133.2 234.6,135.7 
							234.2,140.8 234,144.1 233.7,147.2 223.6,147.1 223.3,144.1 223.1,140.8 222.7,135.7 222.6,133.2 222.4,131.7 222.3,130.3 
							222.3,129.7 222.3,129.1 222.2,128.8 						"/>
						<path class="st18" d="M233.2,128.5h-2.4c-0.5,0-0.9-0.4-0.9-0.9l0,0c0-0.5,0.4-0.9,0.9-0.9h2.4c0.5,0,0.9,0.4,0.9,0.9l0,0
							C234.1,128.1,233.7,128.5,233.2,128.5z"/>
						<path class="st11" d="M235.9,129.1v1.1c0,0.7-0.4,1.2-1,1.5c-0.2,0.1-0.4,0.1-0.6,0.1h-11.5c-0.1,0-0.2,0-0.3,0
							c-0.7-0.2-1.3-0.8-1.3-1.6v-1.1c0-0.9,0.7-1.6,1.6-1.6h11.5C235.2,127.5,235.9,128.2,235.9,129.1z"/>
					</g>
					<polygon class="st19" points="234.8,133.2 234.6,135.7 234.2,140.8 234,144.1 223.3,144.1 223.1,140.8 222.7,135.7 
						222.6,133.2 					"/>
				</g>
				<g>
					<g>
						<path class="st5" d="M258,92.7L258,92.7c-2.7,2.9-8.4,8.9-24,13.9c-2.7,0.8-5.6,1.7-8.8,2.4c-3,0.7-5.9,1.2-8.7,1.7
							c-6.6,1-12.6,1.3-17.5,1.3c-8.3,0-13.7-0.9-14.1-1l1-5.7l-1-4.7c-0.6-0.1,14.2,1.2,31.1-1.6c2.2-0.4,4.4-0.8,6.6-1.3
							c3.5-0.8,6.6-1.7,9.3-2.6c11.6-3.9,21.7-9.5,23.6-11.5l-5.9,1.2L258,92.7z"/>
					</g>
					<g>
						<g>
							<path class="st5" d="M177.4,104.6c0,0.1,0,0.1,0,0.2c-0.1,0.6-0.4,1.1-1,1.4l-5.5,2.5l-6.3,2.9c-0.3,0.2-0.7,0.2-1,0.1
								c-0.5-0.1-1-0.4-1.2-1c-0.1-0.2-0.2-0.5-0.2-0.7c0-0.6,0.4-1.3,1-1.6l2.3-1.1l2.2-1l5.5-2.5l0.1-0.1l1.5-0.7
								c0.8-0.4,1.7-0.1,2.2,0.7c0,0.1,0.1,0.1,0.1,0.2C177.4,104.1,177.4,104.3,177.4,104.6z"/>
							<path class="st5" d="M177,109.7c0,0.7-0.4,1.3-1,1.6l-0.9,0.4l-8.5,3.9c-0.9,0.4-1.9,0-2.3-0.8c-0.1-0.2-0.2-0.5-0.2-0.7
								c0-0.7,0.4-1.3,1-1.6l6.8-3.1l2.6-1.2c0.9-0.4,1.9,0,2.3,0.8C176.9,109.2,177,109.5,177,109.7z"/>
							<path class="st5" d="M184.7,109.8c0,0.2,0,0.5-0.1,0.7c-0.2,0.4-0.5,0.7-0.9,0.9l-8.2,4.1c-0.9,0.4-1.9,0-2.3-0.8
								c-0.1-0.2-0.2-0.5-0.2-0.7c0-0.6,0.4-1.3,1-1.6l4.7-2.5l3.5-1.6c0.9-0.4,1.9,0,2.3,0.8C184.7,109.3,184.7,109.5,184.7,109.8z
								"/>
						</g>
						<path class="st5" d="M187,109.9c-1.2,0.7-6.6,4.2-7.7,4.6c-1.4,0.5-2-0.2-3.1-0.1c-3.1,0.5-1.5-0.9-2.2-1.3
							c-0.2-0.1-1.3-0.6-1.3-0.6l0.6-1.2l-3.1-2.3l-0.9-0.7l-3.1-2.3l-0.1-0.1c0.1,0,1.2-0.9,2.6-2c0.2-0.2,0.5-0.4,0.7-0.5
							c1.4-1.1,3-2.1,3.7-2.4c1.5-0.6,3.2-0.9,4.8-1.1h0c1.2-0.1,2.5-0.1,3.8,0l5.6,0.6C187.2,100.7,187.4,109.7,187,109.9z"/>
					</g>
					<path class="st20" d="M234,106.5c-2.7,0.8-5.6,1.7-8.8,2.4c-3,0.7-5.9,1.2-8.7,1.7c-0.1-2.9-0.5-10.1-0.6-11.7
						c2.2-0.4,4.4-0.8,6.6-1.3c3.5-0.8,6.6-1.7,9.3-2.6L234,106.5z"/>
				</g>
				<g>
					<path class="st21" d="M271.6,84.9c-0.4,0.1-0.8,0.1-1.2,0.2c-12.9,1.6-25-7.3-27.2-20.5l-5-29.4l17.4-3.1l31.9-5l4.6,38.7
						C294.4,79.4,285,82.6,271.6,84.9z"/>
					<path class="st22" d="M282.5,73.7c-0.9,4.7-5.9,8.7-12.1,11.4c-12.9,1.6-25-7.3-27.2-20.5l-5-29.4l17.4-3.1
						c10.8,2.7,22.7,8.8,23.5,10.1C279.5,42.9,285,61.3,282.5,73.7z"/>
					<path class="st5" d="M268.1,76.7h2.3c3,0,5.5-2.5,5.5-5.5l-1.9-18.1c0-3-0.6-4.9-3.6-4.9h-2.3c-3,0-5.5,2.5-5.5,5.5v17.5
						C262.6,74.3,265.1,76.7,268.1,76.7z"/>
					<path class="st21" d="M237.8,39.4c0.7,2,1.6,3.8,2.4,5.8c0.2,0.5-1.7-4.5-1.2-4.3c1.2,0.6,2.7,0.1,3.9-0.3
						c4.3-1.4,8.3-4,12.2-6.2c3.9-2.2,8-4.8,12.4-6c1.2-0.3,2.9-0.7,4.1-0.1c1.4,0.7,2.3,2.5,3.2,3.7c2.7,4.1,4.9,8.5,7.2,12.8
						c0.4,0.7,0.8,1.5,1.2,2.2c0.1,0.2,0.4,1,0.7,1.1c0.6,0.2,2.3-5.9,2.4-6.5c0.9-3.3,1.6-6.6,1.7-10c0.2-3.2-0.5-6.4-1.7-9.3
						c-2.6-6.3-8-11.2-14.2-13.8c-6.7-2.7-14.4-2.7-21,0.4c-7,3.4-13.1,9.5-14.6,17.2C235.8,28.5,235.9,34.6,237.8,39.4z"/>
					<g>
						<path class="st23" d="M269.8,38.3c0,0.5,0.1,1,0.4,1.5c0.2,0.6,0.6,1.1,1.1,1.6c0.8,0.7,1.9,1.3,3.1,1.2l2.6-0.1l2-0.1
							l-0.3-5.9h0l-0.1-1.1l0-0.8l0-0.8l0-0.2h0l-4.5,0.2c-1.1,0.1-2.2,0.6-2.9,1.3c-0.4,0.5-0.8,1-1,1.7
							C269.8,37.2,269.7,37.7,269.8,38.3z"/>
						<path class="st6" d="M274.4,56.6c-3,4.4-3,5.1-6.8,6.9c0,0,0,0,0,0c-1.5,0.7-3.2,1.3-4.9,1.6c-0.6,0.1-1.3,0.2-1.9,0.3
							c-0.3,0-0.5,0-0.8,0c-0.9,0-1.9,0-2.8-0.1c-0.3,0-0.5,0-0.8-0.1c-8.5-1.1-15.5-7.5-17.1-15.9c-0.2-0.9-0.3-1.8-0.3-2.8
							l-0.1-1.4l-0.5-9.5c-0.1-1.4-0.1-2.8,0.1-4.2c0.1-1,0.3-2.1,0.7-3.1c0.9-2.6,2.1-5,3.9-7c3.4-3.8,8.4-6.3,13.9-6.5
							c4.1-0.2,8,0.8,11.4,2.8c0.5,0.3,0.9,0.6,1.4,0.9c2.3,1.6,3.7,6,3.7,6C274,25.3,274.4,56.5,274.4,56.6z"/>
						<path class="st23" d="M282,40.7c0.1,1.9-1.2,3.6-3,4.1c-0.2,0-0.3,0.1-0.5,0.1c-0.1,0-0.2,0-0.3,0l-1.2,0.1l-0.1-2.5l0-0.6
							l-0.2-4.6l1.2-0.1c0.1,0,0.2,0,0.3,0h0c0.2,0,0.3,0,0.5,0c0,0,0,0,0,0c0.8,0.1,1.5,0.4,2,0.9C281.4,38.8,281.9,39.6,282,40.7z
							"/>
					</g>
					<path class="st5" d="M272.9,33.4c-0.4-1.2-0.8-2.4-1.2-3.7c-0.4,0.4-0.8,1-1.2,1.7c0,0,0.1,1.5,0.3,3.8c0,0,0,0.1,0,0.1
						c0.1,1.6,0.2,3.7,0.2,5.9v0.4c0,4.8-0.2,10.1-1.5,13.3c-2.2,5.9-5.8,9.4-7.2,10.3c-0.2,0.1,1.4,0.4,1.4,0.4s0.2,0.3,3.6-1.8
						c0,0,0,0,0,0c4-1.9,4.8-3.3,6.8-7.2c0.1-0.1,0.4-6.1-0.3-11.4C273.3,40.1,273.2,36.4,272.9,33.4z"/>
					<path class="st21" d="M243.5,22.8c-0.3,1.7-0.1,5.5,2.6,7.5c6.9,5,26.3,1.9,27.1,8.6c3.6,28.2,9.6,35.4,9.7,34.6
						c0.5-3.8,2.8-21,2.7-21.8c-2.8-24.8-6.3-28.3-7.2-29.2c-0.9-0.9-2.2-1.5-3.6-1.5h-24.6C247.7,21,243.9,20.4,243.5,22.8z"/>
					<path class="st5" d="M248.9,48.2c0,0,0.2,1.4,2.3,1.4c1.8-0.1,2-1.3,2-1.3L248.9,48.2z"/>
					<path class="st21" d="M246.3,24.3c0,0-6-0.2-8.4,6.9c0,0-1.4-7.3,8.6-14.8c10-7.5,27.6-1.2,29.1,2c1.4,3.2,1.2,5.7,1.2,5.7
						L246.3,24.3z"/>
					<g>
						<path class="st1" d="M255.4,37c0,0,3.4-1.6,7,0.5"/>
						<path class="st1" d="M241.3,36.6c0,0,3.4-1.6,7,0.5"/>
					</g>
					<path class="st2" d="M258.7,43.4L258.7,43.4c0.5,0,0.9-0.4,0.9-0.9v-1.6c0-0.5-0.4-0.9-0.9-0.9l0,0c-0.5,0-0.9,0.4-0.9,0.9v1.6
						C257.8,43,258.2,43.4,258.7,43.4z"/>
					<path class="st2" d="M244.9,43.4L244.9,43.4c0.5,0,0.9-0.4,0.9-0.9v-1.6c0-0.5-0.4-0.9-0.9-0.9l0,0c-0.5,0-0.9,0.4-0.9,0.9v1.6
						C244,43,244.4,43.4,244.9,43.4z"/>
				</g>
				<g>
					<g>
						<path class="st24" d="M121.3,281.1l32.3,1.3c1.9,0.1,3.5-1.4,3.6-3.3l0,0c0.1-1.5-0.8-2.8-2.2-3.4l-15.7-6.2l-17.5-0.3
							L121.3,281.1z"/>
						<path class="st2" d="M154.2,283.3l-32.7-1.1l0.1-2.3l35,1.2l0,0C156.6,282.3,155.5,283.3,154.2,283.3z"/>
						<g>
							<line class="st25" x1="138.7" y1="274.1" x2="142.6" y2="270.2"/>
							<line class="st25" x1="141.4" y1="275.4" x2="145.4" y2="271.5"/>
							<line class="st25" x1="144.1" y1="277.1" x2="148.5" y2="272.6"/>
						</g>
					</g>
					<g>
						<g>
							<path class="st26" d="M99.6,282.1l32.3,0c1.9,0,3.5-1.6,3.5-3.5l0,0c0-1.5-0.9-2.8-2.3-3.3l-16-5.6l-17.5,0.4L99.6,282.1z"/>
							<path class="st18" d="M132.5,283l-32.7,0.2l0-2.3l35-0.2l0,0C134.9,281.9,133.8,283,132.5,283z"/>
						</g>
						<g>
							<line class="st25" x1="115.4" y1="273.8" x2="119.2" y2="269.9"/>
							<line class="st25" x1="118.1" y1="275.1" x2="122" y2="271.1"/>
							<line class="st25" x1="120.7" y1="276.7" x2="125.1" y2="272.2"/>
						</g>
					</g>
					<g>
						<defs>
							<path id="SVGID_3_" d="M118.4,269.6c-1.2-31.5-4.2-64.8-7.2-70.4c-2.9-3.4-18.8-10.9-34.2-16.1l6.5-19.4
								c10.8,3.7,36.9,13.3,44.3,23.6c3.1,4.4,6.6,16.2,8.4,48.2c1,16.8,2.9,33.3,2.9,33.3L118.4,269.6z"/>
						</defs>
						<clipPath id="SVGID_4_">
							<use xlink:href="#SVGID_3_"  style="overflow:visible;"/>
						</clipPath>
						<g class="st27">
							<path class="st4" d="M118.4,270.4c-1.2-31.5-4.3-65.7-7.3-71.3c-2.9-3.4-18.8-10.9-34.2-16.1l6.5-19.4
								c10.8,3.7,36.9,13.3,44.3,23.6c3.1,4.4,6.6,16.2,8.4,48.2c1,16.8,2.3,34.2,2.3,34.2L118.4,270.4z"/>
						</g>
						<path class="st28" d="M73.2,172.8c0,0,39.1,10,44.5,20.4c5.4,10.4,9.7,74,9.7,74l-12.6,1.7l-51.4-97.2L73.2,172.8z"/>
					</g>
					<path class="st9" d="M101.6,174.6c0.3,3.5-0.6,6.8-2.4,9.6c-2.3,3.5-6.2,5.9-10.7,6.4l-24.4,2.4c-0.7,0.1-1.4,0.1-2.1,0
						c-1.8-0.1-3.6-0.5-5.1-1.2c-0.3-0.1-0.6-0.3-0.8-0.4c-4.2-2.2-7.3-6.4-7.8-11.5l-0.3-7.8l52.5-5.5L101.6,174.6z"/>
					<g>
						<path class="st4" d="M116.6,236.6c2.2,16.5,3.3,32.2,3.3,32.8l-11,0.3l-9.5,0.6c-1.7-28.5-6.3-59.7-10-65.3
							c-3.8-2.6-17.5-6.2-30-8.6c-1.8-0.3-3.5-0.6-5.2-0.9c-0.3-0.1-0.6-0.1-0.9-0.1l0-0.2c0,0,7.1-18.9,28.9-16.2
							c4.6,0.6,8.8,4.2,13.8,6.5c2.6,1.2,4.8,2.5,6.6,3.9C107.3,193.2,112.4,204.3,116.6,236.6z"/>
					</g>
					<path class="st9" d="M108.9,269.7l-9.5,0.6c-1.7-28.5-6.3-59.7-10-65.3c-3.8-2.6-17.5-6.2-30-8.6c-1.8,0-3.6-0.3-5.2-0.9
						c-0.3-0.1-0.6-0.1-0.9-0.1l0-0.2c-4.3-1.9-7.7-6-8.5-11l-0.8-7.8l8.5-0.2c-0.1,0.6-0.3,6.7,2.3,9.9c0.7,0.9,1.7,1.6,3,1.9
						c3.5,0.7,16.3,1.8,26.9,4.7c6.8,1.9,12.7,4.5,14.4,8.2C103,209.6,108.1,262.2,108.9,269.7z"/>
				</g>
				<g>
					<g>
						<g>
							<path class="st5" d="M155.7,135.3c-0.1,0-1.5-0.7-3-1.5c-2.6-1.3-5.5-1.9-8.4-1.9l-5.6,0.1c0,0-0.6,8.7-0.7,9.1
								c-0.4,5.5,10.5,4,10.5,4L155.7,135.3z"/>
							<path class="st5" d="M148.2,137.1l12.8,0.8c0.9,0.1,1.7-0.7,1.8-1.6v0c0.1-0.9-0.7-1.7-1.6-1.8l-12.8-0.8
								c-0.9-0.1-1.7,0.7-1.8,1.6l0,0C146.6,136.2,147.3,137,148.2,137.1z"/>
							<path class="st5" d="M149.3,141.5l10.2,0.9c0.9,0.1,1.8-0.6,1.8-1.5l0,0c0.1-0.9-0.6-1.8-1.5-1.8l-10.2-0.9
								c-0.9-0.1-1.8,0.6-1.8,1.5l0,0C147.7,140.6,148.4,141.4,149.3,141.5z"/>
							<path class="st5" d="M145.4,145.2l12.1,0.7c0.9,0.1,1.7-0.7,1.8-1.6l0,0c0.1-0.9-0.7-1.7-1.6-1.8l-12.1-0.7
								c-0.9-0.1-1.7,0.7-1.8,1.6l0,0C143.7,144.4,144.4,145.2,145.4,145.2z"/>
							<g>
								<g>
									<path class="st29" d="M171.3,128.1v19h-15.9v-19c0-0.8,0.7-1.5,1.5-1.5h12.9C170.6,126.6,171.3,127.2,171.3,128.1z"/>
									<g class="st30">
										<path class="st31" d="M155.6,143.9c-0.2-0.1-5.1-3-5.5-8c-0.2-1.9,0.6-3.1,1.2-3.7c1.7-1.8,4.6-1.7,5-1.7l-0.1,2.3
											c-0.6,0-2.3,0.1-3.2,1c-0.4,0.5-0.6,1.1-0.5,1.9c0.3,3.8,4.3,6.1,4.4,6.2L155.6,143.9z"/>
									</g>
									<path class="st32" d="M167.3,138.7h-4.6c-1.6,0-2.9-1.3-2.9-2.9l0,0c0-1.6,1.3-2.9,2.9-2.9h4.6c1.6,0,2.9,1.3,2.9,2.9l0,0
										C170.2,137.4,168.9,138.7,167.3,138.7z"/>
								</g>
								<path class="st32" d="M163.8,147.1h-8.5v-19c0-0.8,0.7-1.5,1.5-1.5h0.5c0,1,0.3,8.6,2.4,14
									C161.7,145.4,163.3,146.8,163.8,147.1z"/>
							</g>
							<path class="st5" d="M139.3,135.8L152,134c0.9-0.1,1.6-1,1.4-1.9l0,0c-0.1-0.9-1-1.6-1.9-1.4l-12.7,1.8
								c-0.9,0.1-1.6,1-1.4,1.9l0,0C137.6,135.3,138.4,135.9,139.3,135.8z"/>
						</g>
						<rect x="135.3" y="131.2" class="st10" width="5.3" height="14.2"/>
					</g>
					<path class="st33" d="M97.9,93.4l5.6,36.2c2.9,6.2,4.7,9,11.5,8.9l22.5-0.3"/>
				</g>
				<g>
					<path class="st5" d="M84.8,76.3h-2.2c-4,0-7.2-3.3-7.2-7.2V52.6c0-4,3.3-7.2,7.2-7.2h2.2c4,0,7.2,3.3,7.2,7.2v16.5
						C92,73.1,88.8,76.3,84.8,76.3z"/>
					<path class="st34" d="M118,28.2c0,0.4,0,0.8,0,1.2c-0.1,2-0.5,3.9-1,5.8c-2.2,7.9-7.9,14.4-15.2,17.7c-3.6,1.7-7.7,2.6-12,2.5
						c-6.9-0.1-8.3,0.8-14.3-1.3c-3.5-1.2-12.9-6.8-12.9-26.9c0-14.9,12.2-26.8,27-27.2c0.4,0,0.8,0,1.3,0
						c9.3,0.2,17.5,4.9,22.4,12.1c0,0,0,0,0,0c1.4,2.1,2.6,4.4,3.4,6.9C117.6,21.9,118.1,25,118,28.2z"/>
					<g>
						<path class="st23" d="M82,34.5c0,0.6-0.2,1.1-0.4,1.6c-0.3,0.6-0.7,1.2-1.2,1.7c-0.9,0.8-2.1,1.4-3.4,1.3L74.3,39l-2.1-0.1
							l0.3-6.4h0l0.1-1.2l0-0.9l0-0.8l0-0.2h0l4.9,0.3c1.2,0.1,2.4,0.6,3.2,1.4c0.5,0.5,0.9,1.1,1.1,1.8C82,33.4,82.1,33.9,82,34.5z
							"/>
						<path class="st6" d="M116,31.8l-0.5,10.3l-0.1,1.5c0,1-0.2,2-0.4,3c-1.8,9.1-9.3,16.1-18.6,17.2c-0.3,0-0.6,0.1-0.8,0.1
							c-1,0.1-2,0.1-3,0.1c-1,0-2-0.2-2.9-0.3c-1.9-0.3-3.6-0.9-5.3-1.7c0,0,0,0,0,0C77.2,58.6,72.2,51.4,72,43.2c0-0.2,0-0.5,0-0.7
							c0-0.3,0-0.6,0-0.9v-0.2l0-0.7l0.1-1.8l0.3-6.3l0-0.1v0l0.1-1.2l0-0.9l0-0.8l0-0.2c0.1-1.5,0.4-2.9,0.8-4.2
							c0.3-0.9,0.6-1.9,1-2.8c0.1-0.1,0.1-0.3,0.2-0.4c0.3-0.7,0.7-1.4,1.1-2.1c0,0,0,0,0,0c1.6-2.6,3.7-4.9,6.1-6.6
							c0.5-0.3,1-0.7,1.5-1c3.6-2.1,7.9-3.3,12.4-3c6,0.3,11.4,3,15.1,7.1c2,2.2,3.3,4.8,4.3,7.6c0.4,1.1,0.6,2.2,0.7,3.3
							C116.1,28.8,116.1,30.3,116,31.8z"/>
						<path class="st23" d="M74.6,32.6L74.3,39L74,43.3l-1.7-0.1c-0.1,0-0.2,0-0.4,0c-2.8-0.3-5-2.9-4.8-5.8
							c0.1-1.5,0.8-2.7,1.8-3.6c0.9-0.8,2.2-1.3,3.5-1.3h0c0.2,0,0.3,0,0.4,0L74.6,32.6z"/>
					</g>
					<path class="st5" d="M92,64c0,0-3.9,0.3-7.6-2c0,0,0,0,0,0C77.2,58.6,72.2,51.4,72,43.2c-2.8-0.3-5-2.9-4.8-5.8
						c0.1-1.5,0.8-2.7,1.8-3.6c0.9-0.8,2.2-1.3,3.5-1.3v0l0.1-1.2l0-0.9l0-0.8l0-0.2h0c0.1-1.5,0.4-2.9,0.8-4.2
						c2.9-1.6,5.9-1.9,7.6,1.7c0,0-0.2,1.7-0.3,4.2c-0.1,1.9-0.2,4.3-0.2,6.8c0,5.2,0.3,11,1.6,14.5C84.9,59.8,92,64,92,64z"/>
					<path class="st34" d="M116.9,16.9h-35c-2.3,0-4.2-1.9-4.2-4.2l0,0c0-2.3,1.9-4.2,4.2-4.2h35c2.3,0,4.2,1.9,4.2,4.2l0,0
						C121.1,15,119.2,16.9,116.9,16.9z"/>
					<path class="st34" d="M124.5,20.3c0.3,1.9-0.3,3.7-1.5,4.9c-1,1-2.4,1.6-3.9,1.6H87.2c-4.6,0-8.3,3.7-8.3,8.3v5.2
						c0,1.7-1.4,3.1-3.1,3.1h-0.7c-1.7,0-3.1-1.4-3.1-3.1V24.7c0-0.1,0-0.2,0-0.4c-0.6-0.9-0.9-1.9-0.9-3c0-1.5,0.6-2.9,1.6-3.9
						c1-1,2.4-1.6,3.9-1.6l42.3,0C121.6,15.8,124,17.6,124.5,20.3z"/>
					<g>
						<path class="st34" d="M113.7,32.6h-6.8c-0.7,0-1.2-0.6-1.2-1.2l0,0c0-0.7,0.6-1.2,1.2-1.2h6.8c0.7,0,1.2,0.6,1.2,1.2l0,0
							C114.9,32,114.3,32.6,113.7,32.6z"/>
						<path class="st34" d="M97,32.6h-6.8c-0.7,0-1.2-0.6-1.2-1.2l0,0c0-0.7,0.6-1.2,1.2-1.2H97c0.7,0,1.2,0.6,1.2,1.2l0,0
							C98.2,32,97.7,32.6,97,32.6z"/>
						<g class="st35">
							<polygon class="st7" points="94.6,35 97.8,41.4 100.3,41.1 96.9,35 							"/>
							<polygon class="st7" points="109.7,35 113,41.4 115.4,41.1 112,35 							"/>
						</g>
						<path class="st36" d="M112.3,41.7H108c-1.6,0-3-1.3-3-3v-1c0-1.6,1.3-3,3-3h4.3c1.6,0,3,1.3,3,3v1
							C115.2,40.4,113.9,41.7,112.3,41.7z"/>
						<path class="st36" d="M98,41.7h-5c-1.7,0-3-1.4-3-3v-0.9c0-1.7,1.4-3,3-3h5c1.7,0,3,1.4,3,3v0.9C101,40.3,99.7,41.7,98,41.7z"
							/>
						<path class="st37" d="M105.1,50c-1.1,1.2-2.9,1.9-4.9,1.8c-1.6-0.1-3.1-0.7-4.1-1.7"/>
						<path class="st5" d="M105.6,44.4c0,0-0.1,0-0.1,0c0,1.1-1,2-3.3,1.9l-0.3-8.7C104.4,40.9,105.5,42.6,105.6,44.4z"/>
						<path class="st38" d="M101.2,38.3l0.6-0.3c0.8-0.4,1.8-0.4,2.6,0l0.9,0.4"/>
					</g>
					<g>
						<path class="st2" d="M108.2,39.5L108.2,39.5c-0.5,0-1-0.4-1-1v-1.6c0-0.5,0.4-1,1-1l0,0c0.5,0,1,0.4,1,1v1.6
							C109.2,39,108.8,39.5,108.2,39.5z"/>
						<path class="st2" d="M94,39.5L94,39.5c-0.5,0-1-0.4-1-1v-1.6c0-0.5,0.4-1,1-1l0,0c0.5,0,1,0.4,1,1v1.6
							C95,39,94.6,39.5,94,39.5z"/>
					</g>
				</g>
				<g>
					<path class="st9" d="M106.5,96l-5.2,78.2l-41.2,3.9c0,0,0,0,0,0l-17.5,1.7l-0.6,0.1l0-0.3l5.3-68.5c2-24.3,10.1-41.4,22.2-42.7
						c1.1-0.1,2.2-0.2,3.3-0.1c0.4,0,0.7,0,1.1,0.1l8.6,0.6C96.7,69.8,107.4,82,106.5,96z"/>
					<g>
						
							<rect x="68.2" y="67.2" transform="matrix(0.9978 6.654700e-02 -6.654700e-02 0.9978 7.973 -5.0411)" class="st10" width="22.9" height="99.9"/>
					</g>
					<polygon class="st39" points="83.3,77.8 78.1,69.3 83.6,66.4 89.6,70 					"/>
					<polygon class="st39" points="79.9,159.8 74.1,150.7 81.8,73.8 85.7,74.5 86.4,151.2 					"/>
					<polygon class="st7" points="94.3,73.9 84,66.9 71.1,72.3 71.6,64.6 94.8,66.2 					"/>
					<g>
						
							<rect x="64.6" y="166.8" transform="matrix(0.9978 6.654599e-02 -6.654599e-02 0.9978 11.4342 -4.6956)" class="st40" width="23.2" height="4.9"/>
					</g>
					
						<rect x="75" y="167" transform="matrix(0.9978 6.655187e-02 -6.655187e-02 0.9978 11.4566 -4.8921)" class="st41" width="8.3" height="5"/>
				</g>
				<g>
					<path class="st42" d="M252.2,99.5c-1,0.7-28.3,11.7-28.3,11.7l-1.3-3.3l-3.9-9.8c0,0,26-9,34.9-17.7c1-0.9,5.5,2.5,5.8,3.7
						c0.1,0.3,0.1,0.5,0.1,0.8C259,90.2,256.4,96.4,252.2,99.5z"/>
					<path class="st7" d="M221.1,98.1l4.2,11.5c0.3,0.9-0.1,1.9-1,2.3l0,0c-0.9,0.4-2-0.1-2.3-1.1l-4.1-11.5
						c-0.3-0.8,0.1-1.8,0.9-2.2l0,0C219.6,96.7,220.8,97.2,221.1,98.1z"/>
				</g>
				<path class="st43" d="M295.7,106.3l-3.8,64h-0.1l-13-0.6l-31.1-1.3l0-4.4l5.4-36.6l-5.1-22.3c0.9-16.6,5.8-33,18.8-33h7.9
					c1.4,0,2.8,0.1,4.1,0.3c2,0.4,3.9,1.1,5.5,2.3C291.6,79.8,295.3,92,295.7,106.3z"/>
				<g>
					<path class="st42" d="M264.5,130.1c0,0,1.6-19,3.1-27.6c3.5-19.9,10.4-29.5,10.4-29.5l-12.8-3.1l-6.8,2.9c0,0-3.3,11.2-1.5,29
						C257.7,109,264.5,130.1,264.5,130.1z"/>
				</g>
				<path class="st7" d="M278.1,73.2l-8.4,0.7c-2.5,0-4.5-2-4.5-4.5l0,0h11.6c1,0,1.7,0.9,1.6,1.8L278.1,73.2z"/>
				<path class="st7" d="M257.7,74.5l3-0.5c2.5,0,4.5-2,4.5-4.5l0,0l-5.8,0.1c-1.1,0-2,1-1.9,2.1L257.7,74.5z"/>
				<path class="st18" d="M258.1,203.2l0.3-0.1C258.3,203.3,258.1,203.2,258.1,203.2z"/>
				<g>
					<g>
						<g>
							<path class="st5" d="M222.5,260.3c-5.8-27.6-16.9-59.7-10.1-74.4c3.6-7.7,20.9-13.7,47-20.2c1.5-0.4,3-1.3,3.4-1.5
								c-0.2,0.1-0.3,0.2-0.4,0.2l9,15.1c-0.9,0.5-1.8,0.9-5.3,2.4c-26.6,11.2-37.1,9.3-38.3,11c-2.3,16,2.5,40.1,5.7,65.6
								L222.5,260.3z M232.7,199.7L232.7,199.7L232.7,199.7z"/>
							<g>
								<path class="st2" d="M221.8,261.7l-4.9,11.9c-0.8,1.9-2.6,3.2-4.6,3.5l0,0c-1.6,0.3-2.8,1.7-2.7,3.3l0,0
									c0.1,1.8,1.8,3.2,3.6,3l5.1-0.6c2.6-0.3,5-1.6,6.8-3.7l12.2-14.5c0.5-0.9,0.7-2.1,0.5-3.1l0,0c-0.5-2.4-3-3.9-5.4-3.2
									L221.8,261.7z"/>
								<rect x="233.7" y="260.7" class="st2" width="3.6" height="19.1"/>
								<path class="st3" d="M221.3,260.3l-4.9,11.9c-0.8,1.9-2.6,3.2-4.6,3.5l0,0c-1.6,0.3-2.8,1.7-2.7,3.3l0,0
									c0.1,1.8,1.8,3.2,3.6,3l3.6-0.4c3.6-0.4,6.8-2.2,9.1-5l11.2-13.4c0.5-0.9,0.7-2.1,0.5-3.1l0,0c-0.5-2.4-3-3.9-5.4-3.2
									L221.3,260.3z"/>
								<line class="st44" x1="217.5" y1="269.2" x2="220.5" y2="270.5"/>
								<line class="st44" x1="218.4" y1="266.8" x2="221.4" y2="268.2"/>
								<line class="st44" x1="219.2" y1="264.5" x2="222.3" y2="265.9"/>
							</g>
						</g>
						<g>
							<path class="st6" d="M276.4,175.2c0.1,0,0.2,0,0.3-0.1c-0.6,0.1-2.2,0.2-3.6,0.3c-11.4,1-20.4,2.2-27.4,3.6
								c-5.9,1.1-13.5,3.1-17,4.7c-3.1,1.4-5.7,2.7-7,4.7c-6.9,10.8-13.2,44.2-16,72.3l11.4-2.3c5.4-24,8-35.9,16.8-59.7
								c0.5,0.3,6.2-0.4,10.9-1.6c2.4-0.6,5.5-1.2,9.5-1.8c5.1-0.8,11.8-1.6,20.4-2.4c3.7-0.3,4.7-0.4,5.7-0.7L276.4,175.2z"/>
							<g>
								<path class="st2" d="M205.6,261.9l-5.4,11.7c-0.9,1.8-2.7,3.1-4.7,3.3l0,0c-1.6,0.2-2.8,1.6-2.8,3.2l0,0
									c0,1.9,1.6,3.3,3.5,3.1l5.1-0.4c2.6-0.2,5.1-1.4,6.9-3.4l12.8-14c0.6-0.9,0.8-2,0.6-3.1h0c-0.4-2.4-2.8-4-5.2-3.5
									L205.6,261.9z"/>
								
									<rect x="217.1" y="261.5" transform="matrix(0.9991 4.270274e-02 -4.270274e-02 0.9991 11.7735 -9.1017)" class="st2" width="3.6" height="19.1"/>
								<path class="st45" d="M205.2,260.5l-5.4,11.7c-0.9,1.8-2.7,3.1-4.7,3.3h0c-1.6,0.2-2.8,1.6-2.8,3.2l0,0
									c0,1.9,1.6,3.3,3.5,3.1l3.7-0.3c3.6-0.3,6.9-1.9,9.3-4.6l11.8-12.9c0.6-0.9,0.8-2,0.6-3.1l0,0c-0.4-2.4-2.8-4-5.2-3.5
									L205.2,260.5z"/>
								<line class="st44" x1="201" y1="269.2" x2="204" y2="270.7"/>
								<line class="st44" x1="202" y1="266.9" x2="205" y2="268.4"/>
								<line class="st44" x1="203" y1="264.6" x2="205.9" y2="266.1"/>
							</g>
						</g>
					</g>
					<path class="st5" d="M218.6,179.9c0,0,7.2,0.5,10.1,3.9c0,0,9.6-4.4,17.8,1.6c8.3,5.9,7.7,10.1,7.7,10.1l9.1-0.8
						c0,0-4.7-13.7-15-17.3C238,173.7,218.6,179.9,218.6,179.9z"/>
					<path class="st2" d="M280.4,194l-22.6,1.3c0.2-0.3,0-1.3-1.7-4.2c-7.7-12.6-37.4-11.3-37.4-11.3c4.1-4.7,27-11.3,27-11.3
						l2.2-4.8l31.8-0.9l0.8,0l11.2,3.5l0.2,3.8l0.3,5.4C292.4,183.6,287.8,191,280.4,194z"/>
				</g>
				<g>
					
						<ellipse transform="matrix(0.1022 -0.9948 0.9948 0.1022 162.232 333.3492)" class="st7" cx="265.8" cy="76.8" rx="0.9" ry="0.6"/>
					
						<ellipse transform="matrix(0.1022 -0.9948 0.9948 0.1022 156.5967 337.4739)" class="st7" cx="265.3" cy="82" rx="0.9" ry="0.6"/>
					
						<ellipse transform="matrix(0.1022 -0.9948 0.9948 0.1022 150.9615 341.5986)" class="st7" cx="264.7" cy="87.2" rx="0.9" ry="0.6"/>
				</g>
				<path class="st18" d="M258.1,203.2l0.3-0.1C258.3,203.3,258.1,203.2,258.1,203.2z"/>
				<path class="st2" d="M292.1,175.7c0.4,8-4.3,15.3-11.7,18.4l-22.6,1.3c0.2-0.3,0-1.3-1.7-4.2c4.2-1.6,10.6-4.5,15.4-8
					c4.5-3.3,6.3-7.3,7.3-13.4c0.2-1.2,0.4-2.5,0.6-3.9c0.1-0.9,0.2-1.8,0.3-2.8c0.3-2.9,0.5-6.1,0.8-9.8
					c1.4-16.6,3.1-74.7,3.3-76.6c0.1-0.7,0.2-1.3,0.4-1.8c7.4,5,11.1,17.2,11.5,31.6l-3.8,64h-0.1L292.1,175.7z"/>
				<g>
					<g>
						<g>
							<path class="st6" d="M233.4,137.3l-9.8-1.6c-0.7-0.1-1.2-0.8-1.1-1.5l0,0c0.1-0.7,0.8-1.2,1.5-1.1l9.8,1.6
								c0.7,0.1,1.2,0.8,1.1,1.5l0,0C234.8,136.9,234.1,137.4,233.4,137.3z"/>
							<path class="st6" d="M230.3,139.9l-7.9-1.3c-0.7-0.1-1.2-0.8-1.1-1.5l0,0c0.1-0.7,0.8-1.2,1.5-1.1l7.9,1.3
								c0.7,0.1,1.2,0.8,1.1,1.5l0,0C231.7,139.5,231,140,230.3,139.9z"/>
							<path class="st6" d="M232.1,143.4l-9.3-1.5c-0.7-0.1-1.2-0.8-1.1-1.5l0,0c0.1-0.7,0.8-1.2,1.5-1.1l9.3,1.5
								c0.7,0.1,1.2,0.8,1.1,1.5l0,0C233.5,143,232.8,143.5,232.1,143.4z"/>
						</g>
						<path class="st6" d="M229.2,134.7c0.1,0,1.8-0.2,3.1-0.2c2.3,0,4.3,0.8,6.4,1.8l3.5,1.8c0,0-2.4,6.9-2.7,7
							c-7.2,1.3-9.9-2.4-9.9-2.4L229.2,134.7z"/>
					</g>
					<g>
						<path class="st6" d="M291.1,102.1c0,0-3,12.4-6.2,22.5c-0.9,2.8-1.8,5.5-2.7,7.6c-0.3,0.6-0.5,1.2-0.8,1.8
							c-3.6,7.5-9.1,12.1-17.7,12.1c-0.1,0-25.4-1.2-25.4-1.2l0.4-8.8l25.9-0.9c2.8,0,6.4-4.4,7.9-7.2c0.1-0.2,0.2-0.4,0.3-0.6
							c0.7-1.6,1.4-3.5,2.1-5.6c4.3-12.7,9.2-33.3,9.2-33.3L291.1,102.1z"/>
					</g>
					<path class="st5" d="M274.8,121.8l10.1,2.8c-0.9,2.8-1.8,5.5-2.7,7.6c-0.3,0.6-0.5,1.2-0.8,1.8l-8.9-6L274.8,121.8z"/>
					<path class="st42" d="M292.1,97.5c0,1.2-0.1,2.5-0.4,3.7l-5.6,26.8l-3.5-0.9l-10.2-2.6l9.7-39.6c0.3-1.3,1.7-2,2.9-1.6
						c0.3,0.1,0.5,0.2,0.7,0.4C289.9,87.2,292.1,92.3,292.1,97.5z"/>
					<path class="st7" d="M274,122.5l11.8,3.4c0.9,0.3,1.5,1.2,1.2,2.2l0,0c-0.3,1-1.3,1.5-2.2,1.2l-11.8-3.5
						c-0.8-0.2-1.4-1.1-1.2-2l0,0C272,122.9,273,122.3,274,122.5z"/>
				</g>
				<path class="st46" d="M71.1,68.4L63.3,177c0,0-1.3,0.5-3.2,1.1c0,0,0,0,0,0c-4.5,1.4-12.7,3.4-17.5,1.7
					c-0.2-0.1-0.4-0.1-0.5-0.2l5.3-68.5c2-24.3,10.1-41.4,22.2-42.7C70.7,68.2,70,68.4,71.1,68.4z"/>
				<path class="st47" d="M57.1,88.3l51.7,35.6c0,0-16.3,5-30.2-2.2C64.8,114.6,58.2,101.4,57.1,88.3z"/>
				<g>
					<g>
						<path class="st6" d="M170.3,105.3l11.9,7.5c0.9,0.5,2,0.3,2.5-0.6l0,0c0.5-0.9,0.2-2-0.6-2.6l-11.9-7.5
							c-0.9-0.5-2-0.3-2.5,0.6l0,0C169.1,103.6,169.4,104.7,170.3,105.3z"/>
						<path class="st6" d="M170.2,110.1l9.6,6c0.9,0.5,2,0.3,2.5-0.6l0,0c0.5-0.9,0.2-2-0.6-2.6l-9.6-6c-0.9-0.5-2-0.3-2.5,0.6l0,0
							C169.1,108.4,169.4,109.6,170.2,110.1z"/>
						<path class="st6" d="M165.5,112l11.3,7.1c0.9,0.5,2,0.3,2.5-0.6l0,0c0.5-0.9,0.2-2-0.6-2.6l-11.3-7.1c-0.9-0.5-2-0.3-2.5,0.6
							l0,0C164.3,110.3,164.6,111.4,165.5,112z"/>
					</g>
					<path class="st6" d="M175.6,105.8c-0.1,0-0.9-1.6-2.6-2.5c-2.9-1.4-6.1-2.2-9.3-2.1l-4.9,0.3c0,0-2.5,9.6-2.2,9.9
						c8.8,6.4,14.2,3.6,14.2,3.6L175.6,105.8z"/>
				</g>
				
					<rect x="155.6" y="101.5" transform="matrix(0.9873 -0.1587 0.1587 0.9873 -15.3278 26.4543)" class="st10" width="4.7" height="15.4"/>
				<path class="st48" d="M62.7,83.8c8.3,12.6,34.5,41.6,94.5,26.2"/>
				<path class="st34" d="M248,52.1c0,0,3.6,0.4,7.3,0.1C255.3,52.2,251.9,57.4,248,52.1z"/>
				<path class="st5" d="M277.7,42.6c0.2,1.9-1.2,3.6-3.2,3.8s-2-1.3-2.2-3.2s-0.5-3.4,1.5-3.6S277.5,40.7,277.7,42.6z"/>
				<path class="st21" d="M260.6,33.4c6.3,1.8,8.5,2.8,8.7,6.8c0.2,3.4,3.9,4.5,4,3.4c0.1-1,0-3.4,0-4c0-1.1-0.5-7.5-0.5-7.5
					L260.6,33.4z"/>
			</g>
		</g>
	</g>
	<g>
		<g>
			<defs>
				<path id="SVGID_5_" d="M118.4,269.6c-1.2-31.5-4.2-61.8-7.2-67.5c-2.9-3.4-18.8-10.9-34.2-16.1l6.5-19.4
					c10.8,3.7,36.9,13.3,44.3,23.6c3.1,4.4,6.6,13.2,8.4,45.3c1,16.8,2.9,33.3,2.9,33.3L118.4,269.6z"/>
			</defs>
			<clipPath id="SVGID_6_">
				<use xlink:href="#SVGID_5_"  style="overflow:visible;"/>
			</clipPath>
		</g>
	</g>
</g>
</svg>
