<?xml version="1.0" encoding="utf-8"?>
<!-- Generator: Adobe Illustrator 21.0.0, SVG Export Plug-In . SVG Version: 6.00 Build 0)  -->
<svg version="1.1" id="Layer_1" xmlns="http://www.w3.org/2000/svg" xmlns:xlink="http://www.w3.org/1999/xlink" x="0px" y="0px"
	 viewBox="0 0 81 39" style="enable-background:new 0 0 81 39;" xml:space="preserve">
<style type="text/css">
	.st0{fill:#0374AE;}
	.st1{fill:#FFCC00;}
	.st2{fill:#737373;}
	.st3{font-family:'Roboto-Regular';}
	.st4{font-size:3.3606px;}
</style>
<g>
	<circle class="st0" cx="11" cy="10.6" r="4.6"/>
	<path class="st1" d="M0.4,11.8c0,0-0.6-2.6,0.9-1.9s4.6,7,5.4,8s2.2,3.6,4.2,2.2S30.1,2.5,30.1,2.5s4.2-3.9,4.3-2
		c0.2,1.9-7.1,12.5-15.5,21.6s-9.6,7.7-9.6,7.7S5.2,29.1,0.4,11.8z"/>
	<rect x="0.3" y="32" class="st2" width="80.4" height="1.1"/>
	<path class="st0" d="M46.7,24.2c-0.4,0.8-1,1.6-1.7,2.2c-0.7,0.7-1.4,1.2-2.2,1.7c-0.8,0.5-1.7,0.8-2.6,1.1s-1.9,0.4-2.9,0.4
		c-1.5,0-2.8-0.3-4.1-0.8c-1.3-0.6-2.4-1.3-3.4-2.3c-1-1-1.7-2.1-2.3-3.4c-0.6-1.3-0.8-2.7-0.8-4.1c0-1.5,0.3-2.8,0.8-4.1
		c0.6-1.3,1.3-2.4,2.3-3.4c1-1,2.1-1.7,3.4-2.3c1.3-0.6,2.7-0.8,4.1-0.8c1,0,2,0.1,2.9,0.4c0.9,0.3,1.8,0.6,2.6,1.1
		c0.8,0.5,1.5,1,2.2,1.7c0.7,0.7,1.2,1.4,1.7,2.2L43,15.3c-0.3-0.4-0.7-0.9-1.1-1.3c-0.4-0.4-0.8-0.7-1.3-1c-0.5-0.3-1-0.5-1.5-0.7
		c-0.5-0.2-1.1-0.3-1.7-0.3c-0.9,0-1.8,0.2-2.6,0.6c-0.8,0.4-1.5,0.9-2.1,1.5c-0.6,0.6-1.1,1.4-1.4,2.2c-0.4,0.9-0.5,1.7-0.5,2.7
		c0,0.9,0.2,1.8,0.5,2.7c0.4,0.8,0.8,1.6,1.4,2.2c0.6,0.6,1.3,1.1,2.1,1.5c0.8,0.4,1.7,0.6,2.6,0.6c0.6,0,1.1-0.1,1.7-0.3
		c0.5-0.2,1.1-0.4,1.5-0.7c0.5-0.3,0.9-0.6,1.3-1.1c0.4-0.4,0.8-0.8,1.1-1.3L46.7,24.2z"/>
	<path class="st0" d="M57,29.7c-1.5,0-2.8-0.3-4.1-0.8c-1.3-0.6-2.4-1.3-3.4-2.3c-1-1-1.7-2.1-2.3-3.4c-0.6-1.3-0.8-2.7-0.8-4.2
		c0-1.5,0.3-2.8,0.8-4.1c0.6-1.3,1.3-2.4,2.3-3.4c1-1,2.1-1.7,3.4-2.3c1.3-0.6,2.7-0.8,4.1-0.8c1.5,0,2.9,0.3,4.2,0.8
		c1.3,0.6,2.4,1.3,3.4,2.3c1,1,1.7,2.1,2.3,3.4c0.6,1.3,0.8,2.7,0.8,4.1c0,1.5-0.3,2.9-0.8,4.2c-0.6,1.3-1.3,2.4-2.3,3.4
		c-1,1-2.1,1.7-3.4,2.3C59.9,29.4,58.5,29.7,57,29.7z M57,12c-0.9,0-1.8,0.2-2.6,0.6c-0.8,0.4-1.5,0.9-2.1,1.5
		c-0.6,0.6-1.1,1.4-1.4,2.2c-0.4,0.9-0.5,1.7-0.5,2.7c0,0.9,0.2,1.8,0.5,2.7c0.4,0.8,0.8,1.6,1.4,2.2c0.6,0.6,1.3,1.2,2.1,1.5
		c0.8,0.4,1.7,0.6,2.6,0.6c0.9,0,1.8-0.2,2.6-0.6c0.8-0.4,1.5-0.9,2.1-1.5s1.1-1.4,1.4-2.2c0.4-0.8,0.5-1.7,0.5-2.7
		c0-0.9-0.2-1.8-0.5-2.7c-0.4-0.9-0.8-1.6-1.4-2.2c-0.6-0.6-1.3-1.1-2.1-1.5C58.8,12.2,58,12,57,12z"/>
	<path class="st0" d="M72.3,12.2v5.1h7.9v3.6h-7.9v4.8h8.9v3.5h-12V8.8h12v3.5H72.3z"/>
	<text transform="matrix(1 0 0 1 0 38.0894)" class="st3 st4">Consultoría, Capacitación y Organización Empresarial</text>
</g>
</svg>
