<?xml version="1.0" encoding="utf-8"?>
<!-- Generator: Adobe Illustrator 21.0.0, SVG Export Plug-In . SVG Version: 6.00 Build 0)  -->
<svg version="1.1" id="Layer_1" xmlns="http://www.w3.org/2000/svg" xmlns:xlink="http://www.w3.org/1999/xlink" x="0px" y="0px"
	 viewBox="0 0 138.5 150" style="enable-background:new 0 0 138.5 150;" xml:space="preserve">
<style type="text/css">
	.st0{fill:#F1F2FA;}
	.st1{fill:#5D648E;}
	.st2{fill:#0374AE;}
</style>
<g>
	<circle class="st0" cx="69.5" cy="67.5" r="67.5"/>
	<path class="st1" d="M121.4,16.6c-6.5-2-12.1-0.8-16.3,1.2c-0.4-3.3-3.2-5.8-6.6-5.8H40.6c-3.4,0-6.1,2.5-6.6,5.8
		c-4.2-2-9.8-3.3-16.3-1.2C9.4,19.1,0.5,27.2,0.5,38.7c0,12.8,6.6,22.8,19.1,28.7c5.6,2.7,13,3.4,19.3,3.4c5.2,0,9.6-0.5,11.8-0.8
		c0.7,0.5,1.4,0.9,2.2,1.3c-2,1.4-3.3,3.7-3.3,6.4c0,4.1,3.1,7.4,7.1,7.8c-0.3,0.7-0.4,1.5-0.4,2.3c0,2.9,1.9,5.4,4.5,6.3v35.2
		c-3.5,1.1-6.6,3-8.9,5.3h-4.4V150h44.5v-15.6h-4.4c-2.3-2.3-5.4-4.1-8.9-5.3V94c2.6-0.9,4.5-3.4,4.5-6.3c0-0.8-0.1-1.6-0.4-2.3
		c4-0.4,7.1-3.7,7.1-7.8c0-2.6-1.3-5-3.3-6.4c0.7-0.4,1.5-0.8,2.2-1.3c2.2,0.3,6.6,0.8,11.8,0.8c6.3,0,13.7-0.7,19.3-3.4
		c12.5-5.9,19.1-15.9,19.1-28.7C138.5,27.2,129.6,19.1,121.4,16.6z M100.7,39.4c2.3-3.1,8.2-9.6,13.4-9.6c5.6,0,8.9,4.2,8.9,11.1
		c0,9.3-8.6,14.9-23.8,15.5c1-2.8,1.5-5.8,1.5-8.9V39.4z M39.9,56.5c-15.2-0.6-23.8-6.2-23.8-15.5c0-7,3.3-11.1,8.9-11.1
		c5.2,0,11,6.5,13.4,9.6v8.2C38.3,50.7,38.9,53.7,39.9,56.5z M21.5,63.4C10.5,58.2,5,49.9,5,38.7c0-9.3,7.3-15.8,14-17.9
		c10-3.1,17.4,3.4,19.4,5.4v6.4c-3.3-3.4-8.2-7.2-13.4-7.2c-6.2,0-13.4,4.1-13.4,15.6c0,6,3,19.7,30.3,20c1.1,1.8,2.4,3.5,3.8,5.1
		C39.3,66.6,28.5,66.7,21.5,63.4z M81.7,81h-5.6v4.5c1.2,0,2.2,1,2.2,2.2c0,1.2-1,2.2-2.2,2.2H74v42.6l1.7,0.4c3.7,1,7,2.8,9.1,5.2
		l0.7,0.8h1.9v6.7H51.7v-6.7h1.9l0.7-0.7c2.1-2.4,5.3-4.2,9.1-5.2l1.7-0.4V89.9h-2.2c-1.2,0-2.2-1-2.2-2.2c0-1.2,1-2.2,2.2-2.2V81
		h-5.6c-1.8,0-3.3-1.5-3.3-3.3c0-1.8,1.5-3.3,3.3-3.3h1.1v-3.2L59,69c-9.5-2.7-16.2-11.5-16.2-21.4V20.9h-2.2c-1.2,0-2.2-1-2.2-2.2
		s1-2.2,2.2-2.2h57.9c1.2,0,2.2,1,2.2,2.2s-1,2.2-2.2,2.2h-2.2v26.7c0,9.9-6.7,18.7-16.2,21.4l0.6,2.1v3.2h1.1
		c1.8,0,3.3,1.5,3.3,3.3C85.1,79.5,83.6,81,81.7,81z M117.5,63.4c-7,3.3-17.8,3.1-24.3,2.6c1.5-1.5,2.8-3.2,3.8-5.1
		c27.4-0.3,30.3-14.1,30.3-20c0-11.5-7.2-15.6-13.4-15.6c-5.2,0-10.1,3.9-13.4,7.2v-6.4c2-2,9.4-8.5,19.4-5.4
		c6.8,2.1,14,8.6,14,17.9C134,49.9,128.5,58.2,117.5,63.4z"/>
	<polygon class="st2" points="69.5,50.8 58.4,56.5 60.6,44.4 51.7,36.5 64,34.1 69.5,23.1 75,34.1 87.3,36.5 78.4,44.4 80.6,56.5 	
		"/>
</g>
</svg>
