<?xml version="1.0" encoding="utf-8"?>
<!-- Generator: Adobe Illustrator 21.0.0, SVG Export Plug-In . SVG Version: 6.00 Build 0)  -->
<svg version="1.1" id="Layer_1" xmlns="http://www.w3.org/2000/svg" xmlns:xlink="http://www.w3.org/1999/xlink" x="0px" y="0px"
	 viewBox="0 0 142.5 150" style="enable-background:new 0 0 142.5 150;" xml:space="preserve">
<style type="text/css">
	.st0{fill:#F1F2FA;}
	.st1{fill:#5D648E;}
	.st2{fill:#0374AE;}
</style>
<g>
	<circle class="st0" cx="71.3" cy="68.2" r="68.2"/>
	<g>
		<g>
			<path class="st1" d="M109.3,109.7l-12.6-2.2l-9.7-7.3c5.2-3.8,9.1-9,11.3-15c5.4-0.1,9.8-5.1,9.8-11.1c0-3.3-1.3-6.2-3.4-8.3
				v-2.9c0-12.8-7.5-24.7-19.2-30.3l-1.9,4c10.1,4.8,16.6,15.1,16.6,26.2h-2.2c-9.3,0-14.2-3.9-14.2-3.9l-1.4-1.3l-1.4,1.2
				c-0.2,0.2-6.1,4-36.6,4h-2.2c0-11.1,6.5-21.4,16.6-26.2l-1.9-4C45.3,38.1,37.8,50,37.8,62.9v4.2c-1.4,1.9-2.2,4.3-2.2,6.9
				c0,5.6,3.8,10.3,8.7,11c2.2,6,6,11.2,11.1,15l-9.5,7.5l-12.5,2.2c-2.4,0.4-4.6,1.2-6.6,2.3v-8.9h8.6L17.7,76.7L0.1,103.1h8.6V150
				h1.7h2.7h45.4h10.8h3.9H84h48.1l-4.5-22.5C125.8,118.4,118.5,111.2,109.3,109.7z M71.5,145.5h-0.4l-10.6-42.4
				c0.6,0.3,1.1,0.6,1.7,0.8c2.9,1.2,6,1.8,9.1,1.8c3.1,0,6.2-0.6,9.1-1.8c0.6-0.2,1.2-0.5,1.7-0.8L71.5,145.5z M99.7,80.4
				c0.4-2.1,0.7-4.3,0.7-6.5v-6.1c2,1,3.4,3.4,3.4,6.1C103.7,77.1,102,79.6,99.7,80.4z M40,74c0-2.2,0.9-4.1,2.2-5.3V74
				c0,2,0.2,3.9,0.5,5.8C41.1,78.6,40,76.5,40,74z M46.7,74v-6.7c23.4-0.1,32.4-2.6,35.6-4.1c2.1,1.3,6.6,3.6,13.5,4V74
				c0,11.7-7.2,22.1-18.1,26.2c-4.1,1.6-8.7,1.6-12.9,0C53.9,96.1,46.7,85.7,46.7,74z M13.2,136.4V98.6H8.4l9.2-13.8l9.2,13.8h-4.8
				v16.5c-3.6,3.2-6.2,7.5-7.2,12.4L13.2,136.4z M15.9,145.5l3.4-17.2c1.5-7.3,7.3-13,14.6-14.3l9.6-1.7l-2.2,7.8L47,122l-5.5,5.5
				l13.7,18.1L15.9,145.5L15.9,145.5z M47.4,127.9l7.9-7.9l-8.4-2.7l1.8-6.4l7.7-6l10.2,40.6h-5.7L47.4,127.9z M76.1,145.5
				l10.1-40.4l7.7,5.8l1.8,6.3l-8.4,2.7l7.9,7.9l-13.4,17.7H76.1z M87.4,145.5l13.7-18.1l-5.5-5.5l5.6-1.8l-2.2-7.8l9.6,1.7
				c7.3,1.3,13.2,7,14.6,14.3l3.4,17.2L87.4,145.5L87.4,145.5z"/>
			<path class="st1" d="M124.9,9.7L107.3,36h8.6v60.3h17.9V36h8.6L124.9,9.7z M129.4,31.6v60.3h-8.9V31.6h-4.8l9.2-13.8l9.2,13.8
				H129.4z"/>
		</g>
	</g>
	<path class="st2" d="M93.6,40.5v-8.9h-5.1c-0.4-1.6-1.1-3.2-1.9-4.6l3.6-3.6l-6.3-6.3l-3.6,3.6c-1.4-0.8-3-1.5-4.6-1.9v-5.1h-8.9
		v5.1c-1.6,0.4-3.2,1.1-4.6,1.9l-3.6-3.6l-6.3,6.3l3.6,3.6c-0.8,1.4-1.5,3-1.9,4.6h-5.1v8.9H54c0.4,1.6,1.1,3.2,1.9,4.6l-3.6,3.6
		l6.3,6.3l3.6-3.6c1.4,0.8,3,1.5,4.6,1.9v5.1h8.9v-5.1c1.6-0.4,3.2-1.1,4.6-1.9l3.6,3.6l6.3-6.3l-3.6-3.6c0.8-1.4,1.5-3,1.9-4.6
		L93.6,40.5L93.6,40.5z M71.3,45c-4.9,0-8.9-4-8.9-8.9s4-8.9,8.9-8.9c4.9,0,8.9,4,8.9,8.9S76.2,45,71.3,45z"/>
	<path class="st1" d="M71.3,47.2c6.2,0,11.2-5,11.2-11.2s-5-11.2-11.2-11.2c-6.2,0-11.2,5-11.2,11.2S65.1,47.2,71.3,47.2z
		 M71.3,29.4c3.7,0,6.7,3,6.7,6.7c0,3.7-3,6.7-6.7,6.7c-3.7,0-6.7-3-6.7-6.7C64.6,32.4,67.6,29.4,71.3,29.4z"/>
</g>
</svg>
