<?xml version="1.0" encoding="utf-8"?>
<!-- Generator: Adobe Illustrator 21.0.0, SVG Export Plug-In . SVG Version: 6.00 Build 0)  -->
<svg version="1.1" id="Layer_1" xmlns="http://www.w3.org/2000/svg" xmlns:xlink="http://www.w3.org/1999/xlink" x="0px" y="0px"
	 viewBox="0 0 139.5 150" style="enable-background:new 0 0 139.5 150;" xml:space="preserve">
<style type="text/css">
	.st0{fill:#F1F2FA;}
	.st1{fill:#0374AE;}
	.st2{fill:#5D648E;}
</style>
<g>
	<circle class="st0" cx="70.6" cy="68.9" r="68.9"/>
	<path class="st1" d="M46.5,116.4c-2.7-11.8-12-20.2-22.9-20.2c-13,0-23.6,12.1-23.6,27s10.6,27,23.6,27c10.8,0,20.2-8.4,22.9-20.2
		h59.2v13.5h13.5v-6.7h2.2v6.7H135v-13.5h4.5v-13.5H46.5z M33.9,128.7c0,5.6-4.5,10.1-10.1,10.1s-10.1-4.5-10.1-10.1
		c0-2.1,0.6-4,1.7-5.6c-1.1-1.6-1.7-3.5-1.7-5.6c0-5.6,4.5-10.1,10.1-10.1s10.1,4.5,10.1,10.1c0,2.1-0.6,4-1.7,5.6
		C33.3,124.7,33.9,126.6,33.9,128.7z"/>
	<g>
		<path class="st2" d="M23.8,141.1c-6.8,0-12.4-5.6-12.4-12.4c0-2,0.5-3.9,1.4-5.6c-0.9-1.7-1.4-3.7-1.4-5.6
			c0-6.8,5.6-12.4,12.4-12.4s12.4,5.6,12.4,12.4c0,2-0.5,3.9-1.4,5.6c0.9,1.7,1.4,3.7,1.4,5.6C36.1,135.5,30.6,141.1,23.8,141.1z
			 M23.8,109.6c-4.3,0-7.9,3.5-7.9,7.9c0,1.6,0.5,3.1,1.3,4.4l0.8,1.3l-0.8,1.3c-0.9,1.3-1.3,2.8-1.3,4.4c0,4.3,3.5,7.9,7.9,7.9
			s7.9-3.5,7.9-7.9c0-1.6-0.5-3.1-1.3-4.4l-0.8-1.3l0.8-1.3c0.9-1.3,1.3-2.8,1.3-4.4C31.6,113.1,28.1,109.6,23.8,109.6z"/>
		<path class="st2" d="M101.1,11.2c-2-0.8-4.3-0.6-6.2,0.4c-1.9,1-3.3,2.9-3.7,5l-3.1,14.7l-12.5,3.6c3.5-2.6,5.7-6.9,5.4-11.7
			c-0.5-6.6-5.8-12-12.4-12.5C60.7,10.1,54,16.3,54,24.1c0,4.4,2.1,8.3,5.4,10.8L47,31.3l-3.1-14.7c-0.4-2.1-1.8-3.9-3.7-5
			c-1.9-1-4.2-1.2-6.2-0.4c-3.3,1.3-5.3,4.8-4.6,8.3l3.3,17.3c0.8,4.3,4.1,7.8,8.3,9l13,3.5v28.6l-4.3,29.4
			c-0.3,2.2,0.3,4.5,1.8,6.2c1.5,1.7,3.6,2.7,5.9,2.7c3.8,0,7.2-2.9,7.7-6.7l2.4-16.1l2.3,16c0.5,3.2,2.7,5.8,5.8,6.6
			c2.9,0.7,5.9-0.3,7.8-2.5c1.5-1.7,2.1-4,1.8-6.2L81,77.9V49.4l13-3.5c4.2-1.2,7.5-4.7,8.3-9l3.3-17.3
			C106.3,16,104.4,12.5,101.1,11.2z M67.6,15.1c5,0,9,4,9,9s-4,9-9,9c-5,0-9-4-9-9S62.7,15.1,67.6,15.1z M101.2,18.8l-3.3,17.4
			c-0.5,2.6-2.5,4.8-5.1,5.5l-16.3,4.5v32.1l4.4,29.9c0.2,1.1-0.2,2.2-1.1,3c-0.3,0.2-0.6,0.4-0.9,0.5c-2.1,0.8-4.2-0.6-4.5-2.6
			l-4.5-30.9h-4.5l-4.5,30.9c-0.3,2-2.4,3.4-4.5,2.6c-0.3-0.1-0.6-0.3-0.9-0.5c-0.9-0.8-1.3-1.9-1.1-3l4.4-29.6l0-32.4l-16.3-4.5
			c-2.6-0.7-4.6-2.9-5.1-5.5l-3.3-17.4c-0.3-1.4,0.5-2.8,1.8-3.3c0.8-0.3,1.7-0.3,2.4,0.2c0.7,0.4,1.3,1.1,1.5,2l3.6,17.4l17,4.9
			L74.3,40l17.6-5l3.6-17.4c0.2-0.8,0.7-1.6,1.5-2c0.8-0.4,1.6-0.5,2.4-0.2h0C100.7,16,101.5,17.4,101.2,18.8z"/>
	</g>
</g>
</svg>
