<?xml version="1.0" encoding="utf-8"?>
<!-- Generator: Adobe Illustrator 21.0.0, SVG Export Plug-In . SVG Version: 6.00 Build 0)  -->
<svg version="1.1" id="Layer_1" xmlns="http://www.w3.org/2000/svg" xmlns:xlink="http://www.w3.org/1999/xlink" x="0px" y="0px"
	 viewBox="0 0 173.5 150" style="enable-background:new 0 0 173.5 150;" xml:space="preserve">
<style type="text/css">
	.st0{fill:#0374AE;}
</style>
<g>
	<path class="st0" d="M159.1,135.6H14.8c-0.8,0-1.5-0.3-2-0.8c-0.5-0.5-0.8-1.3-0.8-2V40.4c0-0.8,0.3-1.5,0.8-2
		c0.5-0.5,1.3-0.8,2-0.8h144.2c0.8,0,1.5,0.3,2,0.8c0.5,0.5,0.8,1.3,0.8,2v92.3c0,0.8-0.3,1.5-0.8,2
		C160.6,135.3,159.8,135.6,159.1,135.6L159.1,135.6z M17.7,129.8h138.5V43.3H17.7V129.8z"/>
	<path class="st0" d="M115.8,86.5c-6.4,0-11.5-5.2-11.5-11.5s5.2-11.5,11.5-11.5c6.4,0,11.5,5.2,11.5,11.5
		C127.3,81.4,122.2,86.5,115.8,86.5z M115.8,69.2c-3.2,0-5.8,2.6-5.8,5.8c0,3.2,2.6,5.8,5.8,5.8c3.2,0,5.8-2.6,5.8-5.8
		C121.6,71.8,119,69.2,115.8,69.2z"/>
	<path class="st0" d="M115.8,121.2c-19.1,0-34.6-15.5-34.6-34.6s15.5-34.6,34.6-34.6s34.6,15.5,34.6,34.6
		C150.4,105.6,134.9,121.1,115.8,121.2L115.8,121.2z M115.8,57.7C99.9,57.7,87,70.6,87,86.5s12.9,28.8,28.8,28.8
		s28.8-12.9,28.8-28.8C144.6,70.6,131.7,57.7,115.8,57.7L115.8,57.7z"/>
	<path class="st0" d="M29.3,77.9h-2.9c-1.6,0-2.9-1.3-2.9-2.9c0-1.6,1.3-2.9,2.9-2.9h2.9c1.6,0,2.9,1.3,2.9,2.9
		C32.2,76.6,30.9,77.9,29.3,77.9z"/>
	<path class="st0" d="M55.2,77.9H40.8c-1.6,0-2.9-1.3-2.9-2.9c0-1.6,1.3-2.9,2.9-2.9h14.4c1.6,0,2.9,1.3,2.9,2.9
		C58.1,76.6,56.8,77.9,55.2,77.9z"/>
	<path class="st0" d="M72.5,77.9h-5.8c-1.6,0-2.9-1.3-2.9-2.9c0-1.6,1.3-2.9,2.9-2.9h5.8c1.6,0,2.9,1.3,2.9,2.9
		C75.4,76.6,74.1,77.9,72.5,77.9z"/>
	<path class="st0" d="M72.5,95.2H61c-1.6,0-2.9-1.3-2.9-2.9s1.3-2.9,2.9-2.9h11.5c1.6,0,2.9,1.3,2.9,2.9S74.1,95.2,72.5,95.2z"/>
	<path class="st0" d="M49.5,95.2H26.4c-1.6,0-2.9-1.3-2.9-2.9s1.3-2.9,2.9-2.9h23.1c1.6,0,2.9,1.3,2.9,2.9S51.1,95.2,49.5,95.2z"/>
	<path class="st0" d="M40.8,112.5H26.4c-1.6,0-2.9-1.3-2.9-2.9s1.3-2.9,2.9-2.9h14.4c1.6,0,2.9,1.3,2.9,2.9S42.4,112.5,40.8,112.5z"
		/>
	<path class="st0" d="M72.5,112.5H52.3c-1.6,0-2.9-1.3-2.9-2.9s1.3-2.9,2.9-2.9h20.2c1.6,0,2.9,1.3,2.9,2.9S74.1,112.5,72.5,112.5z"
		/>
	<path class="st0" d="M61,60.6H37.9c-1.6,0-2.9-1.3-2.9-2.9c0-1.6,1.3-2.9,2.9-2.9H61c1.6,0,2.9,1.3,2.9,2.9
		C63.9,59.3,62.6,60.6,61,60.6z"/>
	<path class="st0" d="M95.6,34.6H78.3c-0.8,0-1.5-0.3-2-0.8c-0.5-0.5-0.8-1.3-0.8-2V11.5c0-0.8,0.3-1.5,0.8-2c0.5-0.5,1.3-0.8,2-0.8
		h17.3c0.8,0,1.5,0.3,2,0.8c0.5,0.5,0.8,1.3,0.8,2v20.2c0,0.8-0.3,1.5-0.8,2C97.1,34.3,96.4,34.6,95.6,34.6L95.6,34.6z M81.2,28.8
		h11.5V14.4H81.2L81.2,28.8L81.2,28.8z"/>
	<path class="st0" d="M95.6,14.4H78.3c-0.8,0-1.5-0.3-2-0.8c-0.5-0.5-0.8-1.3-0.8-2C75.4,5.2,80.6,0,87,0s11.5,5.2,11.5,11.5
		c0,0.8-0.3,1.5-0.8,2C97.1,14.1,96.4,14.4,95.6,14.4z M82,8.7h10c-1-1.8-2.9-2.9-5-2.9S83,6.9,82,8.7L82,8.7z"/>
	<path class="st0" d="M115.8,121.2c-5.5,0-10.9-1.3-15.7-3.8c-1-0.5-1.6-1.5-1.6-2.6V98.1c0-9.6,7.7-17.3,17.3-17.3
		s17.3,7.7,17.3,17.3v16.7c0,1.1-0.6,2.1-1.6,2.6C126.7,119.9,121.3,121.2,115.8,121.2z M104.3,113c7.4,3.2,15.7,3.2,23.1,0V98.1
		c0-6.4-5.2-11.5-11.5-11.5c-6.4,0-11.5,5.2-11.5,11.5L104.3,113L104.3,113z"/>
	<path class="st0" d="M164.8,150H9.1c-4.8,0-8.6-3.9-8.7-8.7V31.7c0-4.8,3.9-8.6,8.7-8.7h69.2c0.8,0,1.5,0.3,2,0.8
		c0.5,0.5,0.8,1.3,0.8,2v2.9h11.5V26c0-0.8,0.3-1.5,0.8-2c0.5-0.5,1.3-0.8,2-0.8h69.2c4.8,0,8.6,3.9,8.7,8.7v20.2
		c0,1.6-1.3,2.9-2.9,2.9s-2.9-1.3-2.9-2.9V31.7c0-1.6-1.3-2.9-2.9-2.9H98.5v2.9c0,0.8-0.3,1.5-0.8,2c-0.5,0.5-1.3,0.8-2,0.8H78.3
		c-0.8,0-1.5-0.3-2-0.8c-0.5-0.5-0.8-1.3-0.8-2v-2.9H9.1c-1.6,0-2.9,1.3-2.9,2.9v109.6c0,1.6,1.3,2.9,2.9,2.9h155.8
		c1.6,0,2.9-1.3,2.9-2.9V75c0-1.6,1.3-2.9,2.9-2.9c1.6,0,2.9,1.3,2.9,2.9v66.3C173.5,146.1,169.6,150,164.8,150z"/>
	<circle class="st0" cx="170.6" cy="63.5" r="2.9"/>
</g>
</svg>
