<?xml version="1.0" encoding="utf-8"?>
<!-- Generator: Adobe Illustrator 21.0.0, SVG Export Plug-In . SVG Version: 6.00 Build 0)  -->
<svg version="1.1" id="Layer_1" xmlns="http://www.w3.org/2000/svg" xmlns:xlink="http://www.w3.org/1999/xlink" x="0px" y="0px"
	 viewBox="0 0 150 150" style="enable-background:new 0 0 150 150;" xml:space="preserve">
<style type="text/css">
	.st0{fill:#0374AE;}
</style>
<g>
	<path class="st0" d="M25,105.3c-1.5,0-2.6-1.2-2.6-2.6V84.1C4.8,69.2,1.3,43.4,14.3,24.3S52.6-0.8,72.9,10.2S101.9,45.7,93,67
		S60.6,99.5,38.5,92.8l-11.7,11.7C26.4,105,25.7,105.3,25,105.3L25,105.3z M51.3,10.5c-16.8,0-31.7,10.6-37.2,26.4
		s-0.5,33.4,12.6,43.9c0.6,0.5,1,1.3,1,2.1v13.4l8.3-8.3c0.7-0.7,1.8-0.9,2.7-0.6c14.8,5,31.2,0.8,41.8-10.7s13.3-28.2,7-42.6
		C81.1,19.8,67,10.5,51.3,10.5z"/>
	<path class="st0" d="M82.9,115.8c-1.5,0-2.6-1.2-2.6-2.6V100H75c-0.7,0-1.4-0.3-1.9-0.8c-0.5-0.5-0.8-1.2-0.8-1.9V84.8
		c0-0.9,0.4-1.7,1.1-2.2C84.3,75.3,90.8,63.1,90.8,50s-6.5-25.3-17.3-32.6c-0.7-0.5-1.1-1.3-1.1-2.2V7.9c0-4.4,3.5-7.9,7.9-7.9h57.9
		c4.4,0,7.9,3.5,7.9,7.9v84.2c0,4.4-3.5,7.9-7.9,7.9H99.8l-15,15C84.3,115.5,83.6,115.8,82.9,115.8z M77.6,94.7h5.3
		c0.7,0,1.4,0.3,1.9,0.8c0.5,0.5,0.8,1.2,0.8,1.9v9.4l11.3-11.3c0.5-0.5,1.2-0.8,1.9-0.8h39.5c1.5,0,2.6-1.2,2.6-2.6V7.9
		c0-1.5-1.2-2.6-2.6-2.6H80.3c-1.5,0-2.6,1.2-2.6,2.6v5.9C89.2,22.2,96.1,35.7,96.1,50s-6.8,27.8-18.4,36.2L77.6,94.7L77.6,94.7z"/>
	<path class="st0" d="M11.8,150c-1.5,0-2.6-1.2-2.6-2.6v-13.6c-3.2-1.1-5.3-4.1-5.3-7.4V78.9c0-4.4,3.5-7.9,7.9-7.9h4.7
		c0.9,0,1.7,0.4,2.2,1.1c2.2,3.2,4.9,6.1,7.9,8.6c0.6,0.5,1,1.3,1,2.1v13.4l8.3-8.3c0.7-0.7,1.8-0.9,2.7-0.6
		c11.7,4,24.6,2.2,34.9-4.7c0.8-0.5,1.8-0.6,2.7-0.2c0.9,0.5,1.4,1.4,1.4,2.3v9.9h5.3c0.7,0,1.4,0.3,1.9,0.8
		c0.5,0.5,0.8,1.2,0.8,1.9v9.4l3.4-3.4c0.8-0.8,1.9-1,2.9-0.6c1,0.4,1.6,1.4,1.6,2.4v21.1c0,4.4-3.5,7.9-7.9,7.9H28.7l-15,15
		C13.2,149.7,12.5,150,11.8,150L11.8,150z M11.8,76.3c-1.5,0-2.6,1.2-2.6,2.6v47.4c0,1.5,1.2,2.6,2.6,2.6c0.7,0,1.4,0.3,1.9,0.8
		c0.5,0.5,0.8,1.2,0.8,1.9v9.4l11.3-11.3c0.5-0.5,1.2-0.8,1.9-0.8h57.9c1.5,0,2.6-1.2,2.6-2.6v-14.7l-3.4,3.4
		c-0.8,0.8-1.9,1-2.9,0.6c-1-0.4-1.6-1.4-1.6-2.4V100H75c-0.7,0-1.4-0.3-1.9-0.8c-0.5-0.5-0.8-1.2-0.8-1.9v-7.9
		C62,95,49.8,96.2,38.5,92.8l-11.7,11.7c-0.8,0.8-1.9,1-2.9,0.6s-1.6-1.4-1.6-2.4V84.1c-2.7-2.3-5.1-4.9-7.1-7.8L11.8,76.3
		L11.8,76.3z"/>
	<path class="st0" d="M127.6,26.3h-18.4c-1.5,0-2.6-1.2-2.6-2.6c0-1.5,1.2-2.6,2.6-2.6h18.4c1.5,0,2.6,1.2,2.6,2.6
		C130.3,25.1,129.1,26.3,127.6,26.3z"/>
	<path class="st0" d="M98.7,26.3H85.5c-1.5,0-2.6-1.2-2.6-2.6c0-1.5,1.2-2.6,2.6-2.6h13.2c1.5,0,2.6,1.2,2.6,2.6
		C101.3,25.1,100.1,26.3,98.7,26.3z"/>
	<path class="st0" d="M127.6,39.5h-7.9c-1.5,0-2.6-1.2-2.6-2.6s1.2-2.6,2.6-2.6h7.9c1.5,0,2.6,1.2,2.6,2.6S129.1,39.5,127.6,39.5z"
		/>
	<path class="st0" d="M109.2,39.5H93.4c-1.5,0-2.6-1.2-2.6-2.6s1.2-2.6,2.6-2.6h15.8c1.5,0,2.6,1.2,2.6,2.6S110.7,39.5,109.2,39.5z"
		/>
	<path class="st0" d="M127.6,52.6h-15.8c-1.5,0-2.6-1.2-2.6-2.6c0-1.5,1.2-2.6,2.6-2.6h15.8c1.5,0,2.6,1.2,2.6,2.6
		C130.3,51.5,129.1,52.6,127.6,52.6z"/>
	<path class="st0" d="M101.3,52.6h-7.9c-1.5,0-2.6-1.2-2.6-2.6c0-1.5,1.2-2.6,2.6-2.6h7.9c1.5,0,2.6,1.2,2.6,2.6
		C103.9,51.5,102.8,52.6,101.3,52.6z"/>
	<path class="st0" d="M127.6,65.8h-7.9c-1.5,0-2.6-1.2-2.6-2.6c0-1.5,1.2-2.6,2.6-2.6h7.9c1.5,0,2.6,1.2,2.6,2.6
		C130.3,64.6,129.1,65.8,127.6,65.8z"/>
	<path class="st0" d="M109.2,65.8H93.4c-1.5,0-2.6-1.2-2.6-2.6c0-1.5,1.2-2.6,2.6-2.6h15.8c1.5,0,2.6,1.2,2.6,2.6
		C111.8,64.6,110.7,65.8,109.2,65.8z"/>
	<path class="st0" d="M127.6,78.9h-13.2c-1.5,0-2.6-1.2-2.6-2.6c0-1.5,1.2-2.6,2.6-2.6h13.2c1.5,0,2.6,1.2,2.6,2.6
		C130.3,77.8,129.1,78.9,127.6,78.9z"/>
	<path class="st0" d="M103.9,78.9H85.5c-1.5,0-2.6-1.2-2.6-2.6c0-1.5,1.2-2.6,2.6-2.6h18.4c1.5,0,2.6,1.2,2.6,2.6
		S105.4,78.9,103.9,78.9z"/>
	<path class="st0" d="M72.4,39.5H59.2c-1.5,0-2.6-1.2-2.6-2.6s1.2-2.6,2.6-2.6h13.2c1.5,0,2.6,1.2,2.6,2.6S73.8,39.5,72.4,39.5z"/>
	<path class="st0" d="M48.7,39.5H30.3c-1.5,0-2.6-1.2-2.6-2.6s1.2-2.6,2.6-2.6h18.4c1.5,0,2.6,1.2,2.6,2.6S50.1,39.5,48.7,39.5z"/>
	<path class="st0" d="M72.4,52.6h-2.6c-1.5,0-2.6-1.2-2.6-2.6c0-1.5,1.2-2.6,2.6-2.6h2.6c1.5,0,2.6,1.2,2.6,2.6
		C75,51.5,73.8,52.6,72.4,52.6z"/>
	<path class="st0" d="M59.2,52.6H48.7c-1.5,0-2.6-1.2-2.6-2.6c0-1.5,1.2-2.6,2.6-2.6h10.5c1.5,0,2.6,1.2,2.6,2.6
		C61.8,51.5,60.7,52.6,59.2,52.6z"/>
	<path class="st0" d="M38.2,52.6h-7.9c-1.5,0-2.6-1.2-2.6-2.6c0-1.5,1.2-2.6,2.6-2.6h7.9c1.5,0,2.6,1.2,2.6,2.6
		C40.8,51.5,39.6,52.6,38.2,52.6z"/>
	<path class="st0" d="M72.4,65.8h-7.9c-1.5,0-2.6-1.2-2.6-2.6c0-1.5,1.2-2.6,2.6-2.6h7.9c1.5,0,2.6,1.2,2.6,2.6
		C75,64.6,73.8,65.8,72.4,65.8z"/>
	<path class="st0" d="M53.9,65.8H30.3c-1.5,0-2.6-1.2-2.6-2.6c0-1.5,1.2-2.6,2.6-2.6h23.7c1.5,0,2.6,1.2,2.6,2.6
		C56.6,64.6,55.4,65.8,53.9,65.8z"/>
	<path class="st0" d="M67.1,107.9H48.7c-1.5,0-2.6-1.2-2.6-2.6s1.2-2.6,2.6-2.6h18.4c1.5,0,2.6,1.2,2.6,2.6S68.6,107.9,67.1,107.9z"
		/>
	<path class="st0" d="M38.2,107.9h-2.6c-1.5,0-2.6-1.2-2.6-2.6s1.2-2.6,2.6-2.6h2.6c1.5,0,2.6,1.2,2.6,2.6S39.6,107.9,38.2,107.9z"
		/>
	<path class="st0" d="M67.1,121.1h-7.9c-1.5,0-2.6-1.2-2.6-2.6c0-1.5,1.2-2.6,2.6-2.6h7.9c1.5,0,2.6,1.2,2.6,2.6
		C69.7,119.9,68.6,121.1,67.1,121.1z"/>
	<path class="st0" d="M48.7,121.1H35.5c-1.5,0-2.6-1.2-2.6-2.6c0-1.5,1.2-2.6,2.6-2.6h13.2c1.5,0,2.6,1.2,2.6,2.6
		C51.3,119.9,50.1,121.1,48.7,121.1z"/>
</g>
</svg>
