<?xml version="1.0" encoding="utf-8"?>
<!-- Generator: Adobe Illustrator 21.0.0, SVG Export Plug-In . SVG Version: 6.00 Build 0)  -->
<svg version="1.1" id="Layer_1" xmlns="http://www.w3.org/2000/svg" xmlns:xlink="http://www.w3.org/1999/xlink" x="0px" y="0px"
	 viewBox="0 0 138.5 150" style="enable-background:new 0 0 138.5 150;" xml:space="preserve">
<style type="text/css">
	.st0{fill:#F1F2FA;}
	.st1{fill:#0374AE;}
	.st2{fill:#5D648E;}
</style>
<g>
	<circle class="st0" cx="69.6" cy="68.9" r="68.9"/>
	<g>
		<path class="st1" d="M60.6,107.4l-2.5-0.3c-15.6-1.6-22.9-6.3-23.2-6.4l-1.5-1l19-49.9h8.2V107.4z"/>
		<path class="st1" d="M78.4,107.4V49.8h8.2l19,49.9l-1.5,1c-0.3,0.2-7.7,4.8-23.2,6.4L78.4,107.4z"/>
	</g>
	<g>
		<g>
			<path class="st2" d="M82.8,25.4c0-7.4-6-13.4-13.4-13.4S56,18.1,56,25.4s6,13.4,13.4,13.4S82.8,32.8,82.8,25.4z M69.4,34.3
				c-4.9,0-8.9-4-8.9-8.9s4-8.9,8.9-8.9c4.9,0,8.9,4,8.9,8.9S74.3,34.3,69.4,34.3z"/>
			<path class="st2" d="M125.1,41.1c-3.1-5.5-9.1-9.1-15.5-9.1c-2.3,0-4.6,0.5-6.7,1.4v-6.8c0-4.1-3.1-7.6-7.2-7.9
				c-4.6-0.3-8.4,3.3-8.4,7.8v12.2H69.5H51.7V26.6c0-4.1-3.1-7.6-7.2-7.9c-4.6-0.3-8.4,3.3-8.4,7.8v20c0,4.3,3.5,7.8,7.8,7.8h12.2
				v56.6c0,4.1,3.2,7.7,7.3,7.9c2.4,0.1,4.5-0.8,6.1-2.3c1.5,1.6,3.7,2.5,6.1,2.3c4.1-0.3,7.3-3.8,7.3-7.9V54.3h12.2
				c4.3,0,7.8-3.5,7.8-7.8v-8.2c2-1.2,4.3-1.8,6.7-1.8c5.1,0,9.9,3,12.1,7.7l0.6,1.2l1.3,0.1c6.2,0.3,11,5.8,10.5,12.1
				c-0.5,5.8-5.5,10.1-11.3,10.1H93.4l1.7,4.5h27.6c8.2,0,15.2-6.2,15.8-14.4C139.1,49.3,133.1,42.2,125.1,41.1z M98.4,26.5v3.2
				h-6.7v-3.3c0-2,1.8-3.6,3.9-3.3C97.3,23.4,98.4,24.9,98.4,26.5z M70.7,43.1l-1.3,1.3l-1.3-1.3H70.7z M47.2,26.5v3.2h-6.7v-3.3
				c0-2,1.8-3.6,3.9-3.3C46.1,23.4,47.2,24.9,47.2,26.5z M78.4,75.3l-8.9,5.3l-8.9-5.3v-3.2h17.8V75.3z M60.6,111V80.6l6.7,4v26.6
				c0,2-1.8,3.6-3.9,3.3C61.7,114.2,60.6,112.7,60.6,111z M71.7,111V84.6l6.7-4v30.6c0,2-1.8,3.6-3.9,3.3
				C72.9,114.2,71.7,112.7,71.7,111z M95.1,49.8H78.4v17.8H60.6V49.8H43.9c-1.8,0-3.3-1.5-3.3-3.3V34.2h6.7v8.9h11.1
				c0,1.2,1,2.2,2.2,2.2c1,0,1.8-0.6,2.1-1.5l6.8,6.8l6.8-6.8c0.3,0.8,1.1,1.5,2.1,1.5c1.2,0,2.2-1,2.2-2.2h11.1v-8.9h6.7v12.2
				C98.4,48.3,96.9,49.8,95.1,49.8z"/>
			<path class="st2" d="M47.1,119c-3.1-5.5-9.1-9.1-15.5-9.1c-6.4,0-12.2,3.5-15.4,8.9c-0.1,0-0.1,0-0.2,0c-8.8,0-16,7.4-15.6,16.3
				c0.4,8.3,7.4,14.8,15.8,14.8h28.5c8.2,0,15.2-6.2,15.8-14.4C61.1,127.2,55.1,120.1,47.1,119z M44.7,145.5H16.2
				c-5.9,0-10.9-4.5-11.3-10.4c-0.4-6.5,4.7-11.9,11.1-11.9c0.4,0,0.8,0,1.2,0.1l1.6,0.2l0.7-1.4c2.2-4.7,6.9-7.7,12.1-7.7
				c5.1,0,9.9,3,12.1,7.7l0.6,1.2l1.3,0.1c6.2,0.3,11,5.8,10.5,12.1C55.5,141.2,50.5,145.5,44.7,145.5z"/>
		</g>
	</g>
</g>
</svg>
