<?xml version="1.0" encoding="utf-8"?>
<!-- Generator: Adobe Illustrator 21.0.0, SVG Export Plug-In . SVG Version: 6.00 Build 0)  -->
<svg version="1.1" id="Layer_1" xmlns="http://www.w3.org/2000/svg" xmlns:xlink="http://www.w3.org/1999/xlink" x="0px" y="0px"
	 viewBox="0 0 160.5 150" style="enable-background:new 0 0 160.5 150;" xml:space="preserve">
<style type="text/css">
	.st0{fill:#0374AE;}
</style>
<g>
	<path class="st0" d="M112.3,150H48c-1.5,0-2.7-1.2-2.7-2.7c0-7.4,6-13.4,13.4-13.4h42.9c7.4,0,13.4,6,13.4,13.4
		C115,148.8,113.8,150,112.3,150z M51.1,144.6h58c-1.1-3.2-4.2-5.4-7.6-5.4H58.7C55.3,139.3,52.3,141.4,51.1,144.6L51.1,144.6z"/>
	<path class="st0" d="M98.9,139.3H61.4c-0.8,0-1.6-0.4-2.1-1c-0.5-0.7-0.7-1.5-0.5-2.3l5.4-21.4c0.3-1.2,1.4-2,2.6-2h26.8
		c1.2,0,2.3,0.8,2.6,2l5.4,21.4c0.2,0.8,0,1.6-0.5,2.3C100.5,138.9,99.7,139.3,98.9,139.3z M64.8,133.9h30.6l-4-16.1H68.8
		L64.8,133.9z"/>
	<path class="st0" d="M157.8,96.4H2.5c-1.5,0-2.7-1.2-2.7-2.7V83c0-1.5,1.2-2.7,2.7-2.7s2.7,1.2,2.7,2.7v8h150v-79
		c0-3.7-3-6.7-6.7-6.7H11.8c-3.7,0-6.7,3-6.7,6.7v49.6c0,1.5-1.2,2.7-2.7,2.7s-2.7-1.2-2.7-2.7V12.1C-0.2,5.4,5.2,0,11.8,0h136.6
		c6.7,0,12,5.4,12.1,12.1v81.7C160.5,95.2,159.3,96.4,157.8,96.4z"/>
	<circle class="st0" cx="2.5" cy="72.3" r="2.7"/>
	<path class="st0" d="M148.4,117.9H11.8c-6.7,0-12-5.4-12.1-12.1V93.7c0-1.5,1.2-2.7,2.7-2.7h155.4c1.5,0,2.7,1.2,2.7,2.7v12.1
		C160.5,112.5,155.1,117.8,148.4,117.9L148.4,117.9z M5.1,96.4v9.4c0,3.7,3,6.7,6.7,6.7h136.6c3.7,0,6.7-3,6.7-6.7v-9.4H5.1z"/>
	<path class="st0" d="M50.7,80.4c-1.1,0-2-0.6-2.5-1.6s-0.2-2.1,0.5-2.9l31.1-33.8c0.6-0.7,1.6-1,2.6-0.8c0.9,0.2,1.7,0.9,2,1.8
		c0.3,0.9,0.1,1.9-0.6,2.6L52.6,79.5C52.1,80,51.4,80.4,50.7,80.4L50.7,80.4z"/>
	<path class="st0" d="M105.9,70.7c-0.7,0-1.4-0.3-1.9-0.8L79.9,45.8c-1-1-1-2.7,0-3.8c1-1,2.7-1,3.8,0l24.1,24.1
		c0.8,0.8,1,1.9,0.6,2.9C107.9,70.1,106.9,70.7,105.9,70.7L105.9,70.7z"/>
	<path class="st0" d="M105.9,70.7c-1.1,0-2.1-0.7-2.5-1.7c-0.4-1-0.2-2.2,0.6-2.9l38.6-38.6c0.7-0.7,1.7-1,2.6-0.7
		c0.9,0.2,1.7,1,1.9,1.9c0.2,0.9,0,1.9-0.7,2.6l-38.6,38.6C107.2,70.4,106.6,70.7,105.9,70.7z"/>
	<path class="st0" d="M144.4,50.9c-1.5,0-2.7-1.2-2.7-2.7V29.5c0-1.5,1.2-2.7,2.7-2.7s2.7,1.2,2.7,2.7v18.7
		C147.1,49.7,145.9,50.9,144.4,50.9z"/>
	<path class="st0" d="M144.4,32.1h-18.7c-1.5,0-2.7-1.2-2.7-2.7c0-1.5,1.2-2.7,2.7-2.7h18.7c1.5,0,2.7,1.2,2.7,2.7
		C147.1,30.9,145.9,32.1,144.4,32.1z"/>
	<path class="st0" d="M15.9,83c-1.5,0-2.7-1.2-2.7-2.7V21.4c0-1.5,1.2-2.7,2.7-2.7s2.7,1.2,2.7,2.7v58.9C18.5,81.8,17.3,83,15.9,83z
		"/>
	<path class="st0" d="M31.9,26.8h-5.4c-1.5,0-2.7-1.2-2.7-2.7c0-1.5,1.2-2.7,2.7-2.7h5.4c1.5,0,2.7,1.2,2.7,2.7
		C34.6,25.6,33.4,26.8,31.9,26.8z"/>
	<path class="st0" d="M37.3,37.5H26.6c-1.5,0-2.7-1.2-2.7-2.7c0-1.5,1.2-2.7,2.7-2.7h10.7c1.5,0,2.7,1.2,2.7,2.7
		C40,36.3,38.8,37.5,37.3,37.5z"/>
	<path class="st0" d="M31.9,48.2h-5.4c-1.5,0-2.7-1.2-2.7-2.7c0-1.5,1.2-2.7,2.7-2.7h5.4c1.5,0,2.7,1.2,2.7,2.7
		C34.6,47,33.4,48.2,31.9,48.2z"/>
	<path class="st0" d="M37.3,58.9H26.6c-1.5,0-2.7-1.2-2.7-2.7s1.2-2.7,2.7-2.7h10.7c1.5,0,2.7,1.2,2.7,2.7S38.8,58.9,37.3,58.9z"/>
	<path class="st0" d="M31.9,69.6h-5.4c-1.5,0-2.7-1.2-2.7-2.7s1.2-2.7,2.7-2.7h5.4c1.5,0,2.7,1.2,2.7,2.7
		C34.6,68.4,33.4,69.6,31.9,69.6z"/>
	<path class="st0" d="M37.3,80.4H26.6c-1.5,0-2.7-1.2-2.7-2.7s1.2-2.7,2.7-2.7h10.7c1.5,0,2.7,1.2,2.7,2.7
		C40,79.2,38.8,80.4,37.3,80.4z"/>
</g>
</svg>
