<?xml version="1.0" encoding="utf-8"?>
<!-- Generator: Adobe Illustrator 21.0.0, SVG Export Plug-In . SVG Version: 6.00 Build 0)  -->
<svg version="1.1" id="Layer_1" xmlns="http://www.w3.org/2000/svg" xmlns:xlink="http://www.w3.org/1999/xlink" x="0px" y="0px"
	 viewBox="0 0 160.5 150" style="enable-background:new 0 0 160.5 150;" xml:space="preserve">
<style type="text/css">
	.st0{fill:#0374AE;}
</style>
<g>
	<path class="st0" d="M72.2,48.2c-0.7,0-1.4-0.3-1.9-0.8c-3.7-3.3-5.9-8-6.1-13c0.3-4.8,2.5-9.2,6.2-12.3c2.6-2.1,4.3-5.2,4.6-8.6
		c-0.2-3.5-1.9-6.8-4.6-9c-1.1-1-1.1-2.7,0-3.8c1-1.1,2.7-1.1,3.8,0c3.8,3.2,6.1,7.9,6.2,12.9C80,18.5,77.8,23,74,26.1
		c-2.6,2.1-4.2,5.1-4.5,8.5c0.2,3.5,1.9,6.8,4.6,9.1c0.8,0.8,1,1.9,0.6,2.9C74.3,47.6,73.3,48.2,72.2,48.2L72.2,48.2z"/>
	<path class="st0" d="M101.6,48.2c-0.7,0-1.4-0.3-1.9-0.8c-3.7-3.3-5.9-8-6.1-13c0.3-4.8,2.5-9.2,6.2-12.3c2.7-2.1,4.3-5.2,4.6-8.6
		c-0.2-3.5-1.9-6.7-4.6-9c-1.1-1-1.1-2.7,0-3.8c1-1.1,2.7-1.1,3.8,0c3.8,3.2,6,7.9,6.2,12.9c-0.3,4.8-2.6,9.4-6.3,12.4
		c-2.6,2.1-4.2,5.1-4.5,8.5c0.2,3.5,1.9,6.8,4.6,9.1c0.8,0.8,1,1.9,0.6,2.9C103.7,47.6,102.7,48.2,101.6,48.2L101.6,48.2z"/>
	<path class="st0" d="M45.3,48.2c-0.7,0-1.4-0.3-1.9-0.8c-3.7-3.3-5.9-8-6.1-13c0.3-4.8,2.5-9.2,6.2-12.3c2.7-2.1,4.3-5.2,4.6-8.6
		c-0.2-3.5-1.9-6.7-4.6-9c-1.1-1-1.1-2.7,0-3.8c1-1.1,2.7-1.1,3.8,0c3.8,3.2,6,7.9,6.2,12.9c-0.3,4.8-2.6,9.4-6.3,12.4
		c-2.6,2.1-4.2,5.1-4.5,8.5c0.2,3.5,1.9,6.8,4.6,9.1c0.8,0.8,1,1.9,0.6,2.9C47.4,47.6,46.4,48.2,45.3,48.2L45.3,48.2z"/>
	<path class="st0" d="M56.1,131.2c-0.2,0-0.3,0-0.5,0c-21.3-3.6-32.7-15.8-37-39.7c-0.3-1.5,0.7-2.8,2.2-3.1
		c1.4-0.3,2.8,0.7,3.1,2.1c3.9,21.6,13.7,32.1,32.6,35.3c1.4,0.2,2.3,1.5,2.2,2.9C58.7,130.2,57.5,131.2,56.1,131.2z"/>
	<path class="st0" d="M109.7,80.4c-0.7,0-1.4-0.3-1.9-0.8s-0.8-1.2-0.8-1.9V67c0-1.5,1.2-2.7,2.7-2.7c1.5,0,2.7,1.2,2.7,2.7v10.7
		c0,0.7-0.3,1.4-0.8,1.9C111.1,80.1,110.4,80.4,109.7,80.4L109.7,80.4z"/>
	<path class="st0" d="M117.8,107.2h-16.1c-0.7,0-1.4-0.3-1.9-0.8s-0.8-1.2-0.8-1.9V83.1c0-0.9,0.4-1.7,1.2-2.2l8-5.4
		c0.9-0.6,2.1-0.6,3,0l8.1,5.4c0.7,0.5,1.2,1.3,1.2,2.2v21.4c0,0.7-0.3,1.4-0.8,1.9C119.2,107,118.5,107.2,117.8,107.2z
		 M104.4,101.9h10.7V84.6l-5.4-3.6l-5.3,3.6L104.4,101.9L104.4,101.9z"/>
	<path class="st0" d="M124.8,122.9c-1,0-1.9-0.6-2.4-1.4c-0.5-0.9-0.4-2,0.2-2.8c9.4-13.5,10.9-31.9,11.2-46.4
		c0-1.5,1.2-2.6,2.7-2.6h7c6.5,0,11.9,5.3,11.9,11.9v6.9c-0.1,17.4-12.9,32.1-30.1,34.5C125,122.9,124.9,122.9,124.8,122.9z
		 M139.1,75c-0.4,12.9-1.9,28.2-8.7,41.1c11.7-4.2,19.5-15.3,19.5-27.7v-6.9c0-3.6-2.9-6.5-6.5-6.5H139.1L139.1,75z"/>
	<path class="st0" d="M125.8,150H93.6c-0.3,0-0.6,0-0.8-0.1l-7.6-2.5H56.6l-7.6,2.5c-0.3,0.1-0.6,0.1-0.8,0.1H13.3c-4.4,0-8-3.6-8-8
		c0-4.4,3.6-8,8-8h112.5c4.4,0,8,3.6,8,8S130.2,150,125.8,150z M94.1,144.6h31.7c1.5,0,2.7-1.2,2.7-2.7c0-1.5-1.2-2.7-2.7-2.7H13.3
		c-1.5,0-2.7,1.2-2.7,2.7c0,1.5,1.2,2.7,2.7,2.7h34.4l7.6-2.5c0.3-0.1,0.6-0.1,0.8-0.1h29.5c0.3,0,0.6,0,0.8,0.1L94.1,144.6z"/>
	<path class="st0" d="M103.9,139.3H40.5c-0.3,0-0.7-0.1-1-0.2C9.7,126.9,5.5,97.2,5.2,69.7c0-1.4,0.6-2.8,1.6-3.8s2.4-1.6,3.8-1.6
		h123.2c1.4,0,2.8,0.6,3.8,1.6c1,1,1.6,2.4,1.6,3.8c-0.2,27.5-4.5,57.3-34.2,69.4C104.6,139.2,104.3,139.3,103.9,139.3L103.9,139.3z
		 M41,133.9h62.4c26.3-11.1,30.2-37.4,30.4-64.3l-123.2,0C10.8,96.5,14.7,122.9,41,133.9z"/>
</g>
</svg>
